<?xml version="1.0" encoding="UTF-8" standalone="no"?>
<!-- Created with Inkscape (http://www.inkscape.org/) -->

<svg
   xmlns:dc="http://purl.org/dc/elements/1.1/"
   xmlns:cc="http://creativecommons.org/ns#"
   xmlns:rdf="http://www.w3.org/1999/02/22-rdf-syntax-ns#"
   xmlns:svg="http://www.w3.org/2000/svg"
   xmlns="http://www.w3.org/2000/svg"
   xmlns:sodipodi="http://sodipodi.sourceforge.net/DTD/sodipodi-0.dtd"
   xmlns:inkscape="http://www.inkscape.org/namespaces/inkscape"
   width="64"
   height="64"
   id="svg3352"
   version="1.1"
   inkscape:version="0.91 r13725"
   viewBox="0 0 64 64"
   sodipodi:docname="drawing.svg">
  <defs
     id="defs3354" />
  <sodipodi:namedview
     id="base"
     pagecolor="#ffffff"
     bordercolor="#666666"
     borderopacity="1.0"
     inkscape:pageopacity="0.0"
     inkscape:pageshadow="2"
     inkscape:zoom="11"
     inkscape:cx="72.792614"
     inkscape:cy="37.078387"
     inkscape:current-layer="layer1"
     showgrid="true"
     inkscape:document-units="px"
     inkscape:grid-bbox="true"
     inkscape:window-width="2510"
     inkscape:window-height="1395"
     inkscape:window-x="1440"
     inkscape:window-y="1"
     inkscape:window-maximized="1" />
  <metadata
     id="metadata3357">
    <rdf:RDF>
      <cc:Work
         rdf:about="">
        <dc:format>image/svg+xml</dc:format>
        <dc:type
           rdf:resource="http://purl.org/dc/dcmitype/StillImage" />
        <dc:title></dc:title>
      </cc:Work>
    </rdf:RDF>
  </metadata>
  <g
     id="layer1"
     inkscape:label="Layer 1"
     inkscape:groupmode="layer">
    <text
       xml:space="preserve"
       style="font-style:normal;font-weight:normal;font-size:40px;line-height:125%;font-family:sans-serif;letter-spacing:0px;word-spacing:0px;fill:#000000;fill-opacity:1;stroke:none;stroke-width:1px;stroke-linecap:butt;stroke-linejoin:miter;stroke-opacity:1"
       x="8.363636"
       y="20.363636"
       id="text3360"
       sodipodi:linespacing="125%"><tspan
         sodipodi:role="line"
         id="tspan3362"
         x="8.363636"
         y="20.363636" /></text>
    <text
       xml:space="preserve"
       style="font-style:normal;font-weight:normal;font-size:50.68865967px;line-height:125%;font-family:sans-serif;letter-spacing:0px;word-spacing:0px;fill:#000000;fill-opacity:1;stroke:none;stroke-width:1px;stroke-linecap:butt;stroke-linejoin:miter;stroke-opacity:1"
       x="2.2343376"
       y="46.29528"
       id="text3364"
       sodipodi:linespacing="125%"
       transform="scale(0.78225519,1.2783552)"><tspan
         sodipodi:role="line"
         id="tspan3366"
         x="2.2343376"
         y="46.29528"
         style="font-style:normal;font-variant:normal;font-weight:normal;font-stretch:normal;font-size:60px;font-family:Palatino;-inkscape-font-specification:Palatino">ZL</tspan></text>
    <path
       d="M 21.55625,59.074938 C 10.484941,58.843098 9.3423024,58.83416 6.3289774,58.955817 c -1.65,0.06661 -3.1534091,0.12299 -3.3409091,0.125276 l -0.3409091,0.0042 0,-1.038931 0,-1.038932 2.9454434,-5.983796 C 8.7033285,44.704017 21.228309,18.452818 23.194949,14.130704 c 1.213664,-2.667288 1.997665,-4.5086815 1.997665,-4.6919429 0,-0.083334 -1.172929,-0.095514 -5.068182,-0.052632 -6.067889,0.066801 -8.594172,0.2116213 -10.6939573,0.6130367 -1.5320276,0.292877 -1.8125994,0.533804 -2.0122683,1.727932 -0.096898,0.579501 -0.4983199,5.831647 -0.4983199,6.51994 0,0.07711 -0.2009711,0.110938 -0.659091,0.110936 l -0.6590909,-2e-6 0,-6.172208 0,-6.1722076 2.3005077,-0.066355 c 2.1297347,-0.061429 11.2540927,0.060513 16.5985507,0.2218303 2.109753,0.063681 5.391015,-0.00294 6.487305,-0.1317125 l 0.477273,-0.056062 0,1.127367 0,1.1273671 -1.67634,3.3109926 C 28.388099,14.313952 8.9453347,55.033538 8.8918577,55.312522 c -0.047998,0.2504 12.5850213,0.383251 14.8916653,0.156604 3.866881,-0.379956 4.789729,-0.625659 5.179275,-1.378959 0.290992,-0.562716 0.530108,-2.199868 1.013154,-6.936736 l 0.155282,-1.522727 0.680212,0 0.680214,0 -0.06151,1.295454 c -0.105288,2.217603 -0.23316,7.031285 -0.236061,8.886364 -0.0015,0.975 -0.02843,2.044322 -0.05979,2.376271 l -0.05701,0.603543 -0.419615,0.05424 c -1.990877,0.257339 -4.596127,0.322708 -9.101433,0.228363 z"
       id="path3396"
       inkscape:connector-curvature="0" />
  </g>
</svg>
