<?xml version="1.0" ?><svg height="512" id="Layer_1" version="1.1" viewBox="0 0 512 512" width="512" xml:space="preserve" xmlns="http://www.w3.org/2000/svg" xmlns:cc="http://creativecommons.org/ns#" xmlns:dc="http://purl.org/dc/elements/1.1/" xmlns:inkscape="http://www.inkscape.org/namespaces/inkscape" xmlns:rdf="http://www.w3.org/1999/02/22-rdf-syntax-ns#" xmlns:sodipodi="http://sodipodi.sourceforge.net/DTD/sodipodi-0.dtd" xmlns:svg="http://www.w3.org/2000/svg"><defs id="defs12"/><g id="g4902"><rect height="512" id="rect2987" rx="64" ry="64" style="fill:#01a3e3;fill-opacity:1;fill-rule:nonzero;stroke:none" width="512" x="0" y="0"/><g id="Layer_2_2_" transform="matrix(1.4377716,0,0,1.4377716,-113.23674,-93.547493)"><g id="g10"><path d="m 188.004,264.078 c -0.004,0.012 -0.816,6.531 -1.631,14.045 -0.408,3.759 -0.818,7.764 -1.126,11.34 -0.156,1.789 -0.283,3.471 -0.374,4.968 -0.091,1.495 -0.144,2.806 -0.144,3.89 0,2.129 0.172,4.215 0.67,6.244 0.375,1.521 0.933,3.014 1.73,4.42 1.201,2.114 2.939,4.004 5.195,5.553 2.266,1.559 5.023,2.803 8.377,3.785 4.591,1.35 9.98,2.385 15.123,2.393 1.977,0 3.926,-0.156 5.791,-0.541 1.398,-0.285 2.754,-0.699 4.037,-1.296 1.91,-0.884 3.678,-2.206 4.969,-4.031 0.643,-0.909 1.16,-1.934 1.525,-3.044 0.365,-1.108 0.58,-2.297 0.654,-3.551 0.324,-5.904 0.6,-13.584 0.797,-19.808 0.193,-6.22 0.305,-10.97 0.305,-10.976 l -6.453,-0.152 c 0,0 -0.01,0.293 -0.021,0.836 -0.094,3.775 -0.514,19.584 -1.076,29.742 -0.078,1.326 -0.391,2.236 -0.83,2.959 -0.334,0.541 -0.75,0.996 -1.305,1.41 -0.822,0.618 -1.973,1.135 -3.41,1.479 -1.436,0.346 -3.145,0.516 -4.982,0.516 -4.254,0.005 -9.188,-0.911 -13.301,-2.127 -2.545,-0.749 -4.506,-1.62 -5.994,-2.555 -1.114,-0.703 -1.969,-1.432 -2.643,-2.194 -1.012,-1.146 -1.648,-2.371 -2.084,-3.853 -0.428,-1.475 -0.621,-3.215 -0.617,-5.209 0,-0.865 0.045,-2.078 0.133,-3.496 0.303,-4.986 1.076,-12.512 1.775,-18.742 0.35,-3.119 0.678,-5.924 0.92,-7.943 0.123,-1.011 0.223,-1.828 0.293,-2.393 0.064,-0.559 0.105,-0.867 0.105,-0.867 l -6.408,-0.802 z" id="path12" style="fill:#ffffff"/></g><path d="m 239.652,159.709 c -3.77,0 -6.828,4.559 -6.828,10.178 0,5.619 3.059,10.178 6.828,10.178 3.773,0 6.832,-4.559 6.832,-10.178 0,-5.619 -3.058,-10.178 -6.832,-10.178 z m 1.953,12.723 c -1.615,0 -2.928,-1.953 -2.928,-4.361 0,-2.41 1.313,-4.361 2.928,-4.361 1.615,0 2.926,1.952 2.926,4.361 0,2.408 -1.31,4.361 -2.926,4.361 z" id="path14" style="fill:#ffffff"/><path d="m 275.836,168 c 0.334,-0.613 0.691,-1.025 0.99,-1.254 0.305,-0.234 0.527,-0.302 0.762,-0.305 0.234,0.002 0.455,0.07 0.764,0.305 0.449,0.338 1.027,1.119 1.455,2.299 0.432,1.171 0.721,2.703 0.721,4.378 h 5.264 c -0.004,-3.414 -0.73,-6.553 -2.074,-9.041 -0.68,-1.24 -1.521,-2.323 -2.553,-3.129 -1.027,-0.801 -2.27,-1.303 -3.576,-1.303 -1.303,0 -2.545,0.502 -3.572,1.303 -1.549,1.217 -2.676,3.027 -3.445,5.113 -0.768,2.094 -1.184,4.497 -1.188,7.057 h 5.27 c -0.009,-2.235 0.512,-4.209 1.182,-5.423 z" id="path16" style="fill:#ffffff"/><path d="m 364.033,248.247 c -2.119,-3.113 -4.396,-5.979 -6.658,-8.557 0.178,-0.277 0.365,-0.553 0.531,-0.825 1.393,-2.306 2.408,-4.56 2.926,-6.812 0.781,-3.436 1.164,-6.75 1.164,-9.93 0.004,-5.473 -1.139,-10.559 -3.248,-15.186 -2.1,-4.631 -5.15,-8.799 -8.902,-12.549 l -3.564,-3.566 c -0.395,-3.9 -1.15,-8.83 -2.404,-15.406 -3.189,-16.722 -17.855,-42.316 -35.77,-54.629 -17.375,-11.941 -39.518,-16.602 -51.295,-16.77 -9.68,-0.136 -31.949,3.537 -51.301,16.77 -17.939,12.27 -33.813,37.721 -35.766,54.629 -1.105,9.605 -1.439,15.73 -1.336,20.254 l -0.012,0.004 c -0.264,0.063 -2.102,0.48 -4.242,1.969 -1.064,0.746 -2.203,1.773 -3.186,3.162 -0.979,1.38 -1.785,3.129 -2.191,5.192 -0.645,3.214 -0.971,4.837 -1.135,5.662 -0.424,0.523 -0.982,1.277 -1.549,2.268 -0.535,0.934 -1.068,2.074 -1.48,3.404 -0.407,1.324 -0.686,2.848 -0.686,4.512 0,0.956 0.09,1.953 0.295,2.977 0.365,1.826 1.068,4.436 2.311,7.555 0.584,1.459 1.287,3.027 2.125,4.67 -3.029,3.219 -6.189,6.98 -9.072,11.205 -9.754,14.306 -20.404,40.341 -18.857,55.273 1.951,18.861 4.549,19.51 11.053,15.608 7.271,-4.362 15.607,-17.558 15.607,-17.558 0,0 8.879,24.211 23.412,37.066 16.906,14.956 32.514,24.061 51.373,27.961 12.307,2.545 20.457,2.878 24.637,2.801 4.178,0.077 12.328,-0.256 24.635,-2.801 18.859,-3.9 34.461,-13.005 51.373,-27.961 14.529,-12.855 23.408,-37.066 23.408,-37.066 0,0 8.336,13.195 15.607,17.558 6.502,3.901 9.104,3.253 11.057,-15.608 1.545,-14.935 -9.104,-40.97 -18.86,-55.276 z M 281.924,144.2 c 9.516,0 17.23,11.502 17.23,25.688 0,14.188 -7.715,25.686 -17.23,25.686 -9.515,0 -17.234,-11.498 -17.234,-25.686 -10e-4,-14.186 7.718,-25.688 17.234,-25.688 z m -48.125,0 c 9.52,0 17.234,11.502 17.234,25.688 0,14.188 -7.715,25.686 -17.234,25.686 -9.516,0 -17.23,-11.498 -17.23,-25.686 -10e-4,-14.186 7.714,-25.688 17.23,-25.688 z m -12.676,60.479 c 11.834,-5.073 33.43,-6.239 38.983,-6.458 l 0.033,-0.047 c 0,0 0.23,0.006 0.65,0.022 0.422,-0.016 0.648,-0.022 0.648,-0.022 l 0.037,0.047 c 5.553,0.219 27.15,1.385 38.982,6.458 13.656,5.851 21.457,9.103 21.457,12.355 0,3.252 -2.598,6.502 -9.75,9.754 -7.156,3.252 -10.406,2.598 -10.406,2.598 0,0 3.9,-4.549 5.203,-9.1 0,0 -19.492,16.133 -43.016,17.516 -0.186,0.014 -0.361,0.031 -0.555,0.039 l -0.164,0.01 c -0.428,0.016 -0.855,0.02 -1.283,0.028 -0.383,0.013 -0.77,0.025 -1.15,0.025 -0.387,0 -0.77,-0.012 -1.152,-0.025 -0.432,-0.008 -0.857,-0.012 -1.281,-0.028 l -0.17,-0.01 c -0.191,-0.008 -0.369,-0.025 -0.559,-0.039 -23.52,-1.381 -43.012,-17.516 -43.012,-17.516 1.298,4.551 5.205,9.1 5.205,9.1 0,0 -3.252,0.654 -10.404,-2.598 -7.156,-3.252 -9.758,-6.502 -9.758,-9.754 0,-3.252 7.802,-6.504 21.462,-12.355 z m -58.924,11.661 c 0.234,-0.34 0.443,-0.598 0.58,-0.758 0.064,-0.082 0.119,-0.134 0.143,-0.164 l 0.018,-0.018 0.678,-0.678 0.193,-0.959 c 0,0 0,0 1.299,-6.5 0.238,-1.191 0.654,-2.047 1.138,-2.736 0.284,-0.4 0.6,-0.733 0.926,-1.026 0.443,1.199 1.027,2.629 1.787,4.234 1.709,3.594 4.309,8.057 8.18,12.732 5.813,7.014 14.506,14.49 27.244,20.168 12.738,5.684 29.492,9.568 51.396,9.564 1.023,0 2.061,-0.01 3.107,-0.025 20.166,-0.328 36.029,-3.695 48.471,-8.632 9.334,-3.702 16.738,-8.283 22.566,-13.095 8.752,-7.214 13.943,-14.919 16.943,-20.845 0.842,-1.668 1.508,-3.186 2.035,-4.525 1.602,2.084 2.93,4.256 3.967,6.531 1.73,3.818 2.662,7.934 2.666,12.518 0,2.662 -0.32,5.488 -1.006,8.5 -0.297,1.322 -1.008,3.011 -2.15,4.89 -1.988,3.297 -5.262,7.147 -9.508,11.061 -6.363,5.875 -14.904,11.918 -24.576,16.919 -9.672,5.006 -20.482,8.98 -31.387,10.828 -6.902,1.172 -14.045,1.705 -21.252,1.705 -13.871,0.004 -27.963,-1.979 -40.914,-5.101 -12.954,-3.126 -24.77,-7.399 -34.077,-11.929 -11.492,-5.597 -18.673,-12.964 -23.195,-19.707 -2.26,-3.365 -3.848,-6.576 -4.941,-9.314 -1.088,-2.732 -1.688,-5 -1.977,-6.426 -0.119,-0.598 -0.168,-1.168 -0.168,-1.707 0,-0.949 0.156,-1.822 0.402,-2.619 0.367,-1.19 0.94,-2.2 1.412,-2.886 z m 160.217,118.396 c -18.563,24.568 -54.537,28.965 -65.604,29.746 -11.068,-0.781 -47.043,-5.178 -65.606,-29.746 -22.111,-29.264 -18.209,-60.476 -15.607,-69.582 0.6,-2.088 1.377,-4.205 2.236,-6.254 2.971,2.104 6.293,4.1 10.008,5.904 9.795,4.764 22,9.166 35.383,12.396 13.389,3.232 27.947,5.285 42.432,5.287 7.523,0 15.029,-0.555 22.332,-1.797 17.848,-3.039 34.943,-11.197 48.139,-20.455 0.053,-0.039 0.105,-0.075 0.16,-0.117 0.658,1.664 1.258,3.358 1.734,5.033 2.602,9.11 6.502,40.322 -15.607,69.585 z" id="path18" style="fill:#ffffff"/><path d="m 178.867,341.766 c -2.322,-2.061 -4.502,-4.401 -6.523,-6.896 -2.926,1.654 -6.576,3.887 -8.973,5.938 -3.561,3.053 -5.206,7.806 -1.949,8.456 0,0 -15.172,15.136 11.053,26.011 26.666,11.053 55.928,7.801 70.232,-1.949 0.686,-0.469 1.311,-0.904 1.903,-1.316 -3.922,-0.409 -8.701,-1.111 -14.369,-2.28 -18.86,-3.908 -34.468,-13.011 -51.374,-27.964 z" id="path20" style="fill:#ffffff"/><path d="m 284.715,369.728 c -5.672,1.169 -10.449,1.871 -14.375,2.28 0.594,0.412 1.217,0.848 1.904,1.316 14.309,9.75 43.57,13.002 70.23,1.949 26.225,-10.875 11.057,-26.011 11.057,-26.011 3.252,-0.65 1.607,-5.403 -1.951,-8.456 -2.393,-2.051 -6.047,-4.283 -8.969,-5.938 -2.023,2.488 -4.201,4.836 -6.523,6.896 -16.906,14.955 -32.514,24.058 -51.373,27.964 z" id="path22" style="fill:#ffffff"/></g></g></svg>