<?xml version="1.0" ?><svg enable-background="new 0 0 64 64" viewBox="0 0 64 64" xmlns="http://www.w3.org/2000/svg"><path d="M63.87 32.318c-.132-7.233-.44-17.47-.834-19.047-.394-1.577-5.39-8.81-7.098-10.388-1.71-1.578-4.863-2.3-7.69-2.367C45.424.45 22.16-.47 15.785.318S6.89 3.523 5.204 4.986C3.714 6.28 2.006 7.55 1.174 10.05.34 12.547.253 19.65.077 27.276s0 16.35 0 19.99c0 3.637 1.665 7.188 3.46 9.51 1.797 2.324 5.61 4.823 7.843 5.568s3.068 1.184 9.42 1.315c6.354.132 10.735.438 19.366.307 8.63-.132 11.96-.482 15.772-2.41 3.812-1.93 6.703-6.357 7.492-8.812s.57-13.194.44-20.427zm-17 27.146c-.164.1-1.25.362-1.446.164s-1.906-3.912-1.94-4.077c-.054-.273 1.513-.23 1.644-.065.132.165 1.906 3.88 1.742 3.98zM14.503 34.84c.1 1.544 1.02 6.673 4.37 9.37s6.276 3.878 9.233 4.11 7-.396 9.2-1.546c2.203-1.15 5.587-3.55 6.737-6.28 1.15-2.73 2.004-6.28 2.004-8.088 0-1.808.23-3.814.36-3.847.132-.034 8.742-.494 8.94-.165.196.33.36 12.79.098 16.274-.263 3.484-.263 6.344-1.512 7.33s-1.314 1.382-5.488 1.678-10.154.953-16.56.953-13.835-.065-16.464-.36-4.73-.987-4.928-2.072-.46-8.482-.657-12.986-.033-9.304.23-9.6c.25-.28 4.436-1.414 4.567-1.25.134.164-.227 4.932-.13 6.477zM48.02 59.233c-.197-.1-1.873-3.847-1.873-3.945 0-.193 1.48-.1 1.577-.067.1.033 2.202 3.222 2.103 3.452-.1.23-1.61.657-1.807.56zm4.107-1.15c-.197.196-1.02.426-1.15.394-.13-.033-1.742-3.255-1.84-3.353-.136-.136 1.25-.132 1.48.033.23.163 1.707 2.728 1.51 2.925zm.986-.56c-.23-.066-1.314-2.4-1.413-2.532-.06-.08 1.117-.625 1.347-.46.23.164 1.25 2.07 1.25 2.07s-.954.988-1.184.922zm2.103-1.775c-.296-.1-1.084-1.678-1.117-1.875-.025-.145 1.215-.888 1.215-.888s1.084 1.085 1.02 1.216-.823 1.644-1.12 1.546zm1.71-2.763c-.264.066-1.02-1.15-1.052-1.348s.164-1.678.33-1.71c.096-.02 1.478 1.413 1.51 1.544s-.527 1.447-.79 1.513zm2.233-18.477c-.198 6.904-.1 10.323-.297 12.428-.197 2.104-.657 3.32-.82 3.32-.165 0-1.414-1.84-1.414-2.07s.163-5.59.196-9.83.066-11.244-.033-12.493c-.1-1.25-.46-1.874-1.282-2.038-.82-.164-6.407-.23-9.298-.197s-3.68 0-3.845.197c-.164.197-.296 1.61-.13 2.038s.492 1.545.492 1.644.196 6.74-1.15 9.336c-1.348 2.597-2.63 5.293-7.296 7.036-4.666 1.742-6.9 2.137-11.074.69-4.173-1.447-5.816-4.11-6.506-5.984-.69-1.874-1.02-6.28-.82-9.008.196-2.73.426-3.255.853-3.715.427-.46.92-.79.79-1.184s-.46-.558-1.907-.887-5.16-.296-6.473-.33-2.202.1-2.662 1.35.427 12.46.624 17.818.525 8.22 1.872 10.06 2.4 2.434 4.337 2.73 5.552.756 9.265.69 12.75-.362 14.95-.362 4.963-.164 5.028-.066c.066.1 1.94 3.88 1.774 4.01-.164.133-1.216.264-1.38.1-.164-.164-1.643-3.55-2.037-3.55-.394 0-1.05.295-1.05.492s1.84 2.992 1.708 3.058c-.13.066-1.742.1-1.906-.033-.164-.133-1.25-3.223-1.48-3.223s-.755.033-.853.197c-.1.164 1.116 2.86.985 2.893-.13.033-1.15.066-1.282-.066-.13-.13-1.216-2.925-1.413-2.925s-.756.296-.756.427.854 2.564.723 2.564c-.13 0-1.544.1-1.676 0-.13-.1-.82-2.27-1.083-2.27s-1.02.297-.953.56c.066.263.887 1.808.69 1.84-.197.034-7.46.33-13.407.133-5.948-.198-8.313.262-10.614-.89s-5.225-4.207-6.178-6.476c-.953-2.27-1.25-8.285-1.02-12.79s-.196-10.717.1-16.8-.16-13.827 4.538-17.137c1.054-.742 3.68-2.543 5.433-3.112 1.752-.57 4.513-1.184 4.95-.745.44.438.822 2.29 1.15 2.323.33.033 1.02-.1.888-.526s-.887-1.874-.69-1.874c.197 0 .82-.164.986-.033.164.132 2.037 2.466 2.563 3.945s.526 1.414.756 1.414c.23 0 .525-.198.46-.593-.067-.395-.724-2.5-1.348-3.485-.626-.986-.987-1.512-.823-1.512.163 0 .82-.33 1.116 0s2.07 2.827 2.694 4.044c.624 1.216.526 1.512.82 1.578.297.066.69-.164.46-.756s-.886-2.236-1.61-3.353c-.722-1.118-1.05-1.742-.886-1.742s1.676-.13 1.906.133c.23.263 2.366 4.406 3.122 6.05s1.15 2.925 1.446 2.925.56-.164.427-.427c-.13-.262-2.3-5.095-2.924-6.673s-.722-1.907-.558-1.94 1.216-.197 1.48 0 1.938 3.912 3.22 6.41 2.3 4.505 2.53 4.505.426-.296.196-.625c-.23-.33-2.63-5.95-3.187-7.003s-1.478-3.222-1.215-3.255 1.25-.1 1.38.163 2.563 4.307 3.647 7.1 1.314 3.486 1.48 3.486c.163 0 .295-.23.262-.33-.033-.1-1.577-4.537-2.497-6.575-.92-2.038-1.577-3.353-1.347-3.452.23-.1 1.577-.132 1.742.132s2.86 5.852 3.516 7.266c.657 1.415 1.02 2.4 1.216 2.4s.394-.295.197-.755c-.196-.46-2.266-6.082-2.858-7.332s-.756-1.71-.56-1.71c.198 0 .987-.164 1.15.23s3.714 8.417 3.846 8.482c.13.066.427-.164.427-.362s-2.267-5.918-2.63-6.87c-.36-.954-.558-1.382-.262-1.415s1.577-.033 1.61.066c.033.1 2.464 5.59 2.694 5.622.23.033.427-.1.427-.526 0-.427-1.512-3.978-1.676-4.307-.164-.33-.427-.69-.164-.723.263-.033 1.774.066 1.774.066s1.25 2.73 1.61 2.762c.36.033.854-.33.624-.855s-1.02-2.038-.82-2.038 1.05-.066 1.182.132c.13.197 1.577 3.42 2.004 3.452s.69-.297.624-.56c-.066-.263-1.577-3.058-1.413-3.058.163 0 1.38-.1 1.61.132s1.248 2.827 1.773 2.86c.526.033.723-.46.624-.658-.1-.197-1.117-2.203-.953-2.203.164 0 .624-.1.854.263s1.972 4.438 2.136 4.438.79-.46.657-.822c-.13-.362-1.51-3.518-1.313-3.616.197-.1 1.05 0 1.577.723s.723 1.807 1.02 1.84c.295.033.755-.427.92-.362.163.066 2.365 2.236 2.53 6.312.166 4.078 1.382 16.736 1.185 23.64zM12.695 5.052c-.79-.033-3.286.92-5.093 2.236S4.45 11.2 4.383 12.12c-.066.922.016 3.074.164 3.223.23.23.92.132 1.216.033.296-.1.1-1.02.033-1.874s.56-2.334 1.38-3.55 2.892-2.697 3.91-3.124 2.07-.46 2.333-.756c.262-.297.065-.987-.724-1.02zm29.41 12.493c-.428-.164-.132-2.597-.198-2.893-.066-.296-1.38-.454-1.38-.1 0 .264-.23 3.848 0 4.242.23.395 2.432.46 3.023.46s.33-.822.264-1.216-1.282-.328-1.71-.493zm8.838-10.882c-.723-.164-6.31 0-6.9.197-.59.197-.59 2.137-.56 3.715.034 1.578.083 5.373.33 5.655.69.79 7.393.526 8.313.263.92-.263.493-6.05.394-7.463-.097-1.413-.853-2.203-1.576-2.367zm.1 8.45c-.362 0-4.404.164-4.634-.066s-.164-4.47 0-4.8c.156-.313 4.732-.362 4.93-.066.196.297.064 4.933-.297 4.933zm-24.81 5.556c.657-.165.36-1.02-.033-1.152-.393-.132-1.773.23-3.58 1.414s-3.057 2.827-3.22 3.616c-.165.79-.1 1.808.065 1.94 0 0 .69.066.986.066.297 0 .395-2.006 1.61-3.42 1.217-1.413 3.517-2.3 4.174-2.465zm3.286.426c-3.68-.296-6.157 2.192-6.933 3.123-2.136 2.563-2.103 8.35-1.282 10.88.82 2.533 4.896 4.374 6.473 4.735s7.59-.79 9.233-3.65 1.217-7.298.297-10.158c-.92-2.86-4.107-4.635-7.787-4.93zm6.473 14.367c-1.512 1.512-4.337 3.156-7.23 3.025s-5.454-1.545-5.026-4.833c.427-3.288 1.873-4.47 3.32-5.852.964-.922 3.384-2.433 5.29-2.5 1.905-.065 3.022-.13 3.876 1.94s1.282 6.708-.23 8.22z"/></svg>