<?xml version="1.0" ?><svg height="512" id="Layer_1" version="1.1" viewBox="0 0 512 512" width="512" xml:space="preserve" xmlns="http://www.w3.org/2000/svg" xmlns:cc="http://creativecommons.org/ns#" xmlns:dc="http://purl.org/dc/elements/1.1/" xmlns:inkscape="http://www.inkscape.org/namespaces/inkscape" xmlns:rdf="http://www.w3.org/1999/02/22-rdf-syntax-ns#" xmlns:sodipodi="http://sodipodi.sourceforge.net/DTD/sodipodi-0.dtd" xmlns:svg="http://www.w3.org/2000/svg"><defs id="defs12"/><g id="g4606"><rect height="512" id="rect2987" rx="64" ry="64" style="fill:#cf2200;fill-opacity:1;fill-rule:nonzero;stroke:none" width="512" x="0" y="5.6843419e-014"/><path d="m 453.92022,202.6575 c -2.3616,-28.2727 -4.2345,-37.45175 -10.0656,-49.23545 -7.718,-15.60885 -18.8774,-23.83991 -34.769,-25.64885 -12.2941,-1.40212 -58.5271,-3.37099 -101.3212,-4.3228 -74.07586,-1.64389 -195.86854,1.52112 -211.418527,5.49976 -7.18333,1.84348 -12.57816,4.96756 -18.19048,10.54662 -9.82766,9.78671 -15.6856,23.81689 -18.03697,43.22142 -5.37949,44.31909 -5.49464,97.8543 -0.3096,143.77763 2.22344,19.74997 6.81489,32.58526 15.42846,43.1613 5.37949,6.59611 14.64041,12.20844 22.92265,13.88306 5.820847,1.17184 34.916167,2.80296 77.311147,4.32788 6.30571,0.22517 23.02756,0.61663 37.15111,0.86994 29.42664,0.52451 83.54261,0.20981 114.47761,-0.655 20.8079,-0.5821 58.7485,-2.12366 65.8422,-2.6712 1.9983,-0.15225 6.6203,-0.45032 10.269,-0.65757 12.2852,-0.6921 20.0928,-3.26352 27.4283,-9.03063 9.4977,-7.45838 16.8486,-21.24548 19.956,-37.40953 2.9399,-15.29669 4.9126,-42.54212 5.3053,-73.47068 0.3274,-25.84331 -0.1133,-39.79033 -1.9804,-62.1859 z M 204.24019,313.4699 V 198.53174 l 103.51913,57.46396 -103.51913,57.4742 z" id="path9-3" style="fill:#ffffff"/></g></svg>