<?xml version="1.0" ?><!DOCTYPE svg  PUBLIC '-//W3C//DTD SVG 1.1//EN'  'http://www.w3.org/Graphics/SVG/1.1/DTD/svg11.dtd'><svg enable-background="new 0 0 300 300" height="300px" version="1.1" viewBox="0 0 300 300" width="300px" xml:space="preserve" xmlns="http://www.w3.org/2000/svg" xmlns:xlink="http://www.w3.org/1999/xlink"><g id="Layer_1"><g><path d="M289.366,165.608c0.231-22.488,0.998-44.978,0.105-67.461c-0.84-21.185-1.655-42.177-0.971-63.39    c0.131-4.043-3.383-5.772-6.474-5.206c-0.563-0.171-1.191-0.257-1.893-0.229c-43.743,1.77-87.295,1.523-131.049,0.594    c-20.981-0.446-42.013-1.007-62.998-0.52c-21.313,0.494-42.629,2.258-63.954,1.193c-3.513-0.175-5.275,2.436-5.304,5.157    c-0.086,0.565-0.093,1.168,0,1.805c2.879,19.71,0.918,39.685,0.054,59.466c-0.859,19.683,0.193,39.46,0.335,59.155    c0.135,18.752-0.077,37.51,0.19,56.261c0.238,16.755,0.896,33.505,0.921,50.264c0.007,4.903,5.264,6.415,8.507,4.539    c86.324,1.155,172.71,1.771,259.029-0.039c2.715-0.057,4.143-2.063,4.316-4.166c0.727-0.856,1.186-2.002,1.184-3.448    C291.315,228.244,289.044,196.958,289.366,165.608z M253.617,229.27c8.72-0.121,17.438-0.313,26.159-0.377    c0.062,1.979,0.121,3.957,0.176,5.936c-11.656,0.715-23.331,1.017-35.003,1.396c0.178-0.106,0.358-0.213,0.533-0.318    C247.85,234.487,252.244,232.246,253.617,229.27z M245.379,210.937c1.856-0.554,2.11-2.52,1.348-3.798    c5.856,0.045,11.715,0.131,17.568,0.219c4.958,0.073,9.88,0.664,14.775,0.278c0.071,2.171,0.144,4.342,0.218,6.513    c-12.284,0.237-24.568,0.449-36.854,0.46c-0.806,0.001-0.806,1.251,0,1.25c12.3-0.011,24.598-0.224,36.896-0.46    c0.063,1.845,0.125,3.689,0.187,5.535c-9.936,0.796-19.902,0.598-29.867,0.479c-6.279-2.961-17.386,0.09-23.725,2.604    c-0.607-1.668-1.111-3.409-1.144-5.14C231.543,216.044,238.357,213.03,245.379,210.937z M263.293,186.851    c5.072,0.26,10.143,0.361,15.209-0.042c0.029,1.492,0.063,2.983,0.098,4.475c-5.043,0.45-10.102,0.407-15.165,0.305    C265.43,190.458,265.009,187.436,263.293,186.851z M249.223,227C249.351,226.849,249.429,226.784,249.223,227L249.223,227z     M253.861,226.236c-0.454-1.494-1.229-2.657-2.242-3.551c9.322,0.119,18.645,0.241,27.939-0.506    c0.062,1.821,0.12,3.642,0.178,5.463c-8.581,0.064-17.161,0.249-25.742,0.37C254.075,227.443,254.049,226.853,253.861,226.236z     M29.291,258.27c-0.109-14.77-0.605-29.535-0.856-44.303c-0.327-19.26-0.087-38.531-0.214-57.793    c-0.135-20.343-1.14-40.729-0.252-61.059c0.78-17.851,2.058-35.542,0.336-53.297c18.677,0.497,37.366-0.832,56.031-1.375    c20.949-0.609,41.962,0.006,62.91,0.435c43.444,0.89,86.687,1.212,130.113-0.458c-0.023,1.086-0.034,2.171-0.051,3.256    c-5.625,0.127-11.246,0.398-16.873,0.432c-5.875,0.036-11.828,1.194-17.584-0.478c-0.775-0.226-1.104,0.981-0.332,1.205    c5.396,1.568,11.034,0.781,16.56,0.546c6.051-0.257,12.14-0.393,18.21-0.466c-0.029,2.07-0.047,4.14-0.055,6.208    c-11.267,0.042-22.533,0.188-33.799-0.016c-0.807-0.015-0.805,1.235,0,1.25c11.265,0.203,22.528,0.058,33.794,0.016    c-0.004,2.054,0.003,4.107,0.019,6.16c-11.006-1-22.032-0.226-33.063-0.175c-0.806,0.004-0.807,1.254,0,1.25    c11.033-0.05,22.062-0.826,33.07,0.176c0.021,2.199,0.052,4.397,0.093,6.596c-0.027,0.002-0.051-0.005-0.079,0.001    c-5.253,1.119-10.382,0.504-15.654-0.093c-5.784-0.655-11.533,0.615-17.264-0.157c-0.788-0.106-1.128,1.098-0.332,1.205    c5.278,0.711,10.539-0.441,15.847,0.018c5.921,0.512,11.61,1.47,17.502,0.271c0.033,1.663,0.076,3.327,0.119,4.99    c-11.268,0.029-22.533,0.23-33.802,0.243c-0.806,0.001-0.806,1.251,0,1.25c11.279-0.013,22.555-0.215,33.834-0.243    c0.06,2.154,0.127,4.309,0.202,6.463c-11.057,0.96-22.201,0.273-33.286,0.03c-0.807-0.018-0.805,1.232,0,1.25    c11.108,0.244,22.254,0.902,33.327-0.045c0.058,1.591,0.122,3.183,0.187,4.775c-5.571-0.051-11.142-0.188-16.714-0.107    c-2.854,0.041-5.741,0.139-8.572,0.512c-2.685,0.354-5.343,1.196-8.062,0.638c-0.786-0.162-1.121,1.043-0.332,1.205    c4.213,0.866,8.955-0.736,13.18-0.978c6.836-0.391,13.704-0.101,20.55-0.02c0.081,1.925,0.167,3.852,0.257,5.78    c-10.857,0.033-21.713,0.228-32.57,0.24c-0.806,0.001-0.806,1.251,0,1.25c10.877-0.013,21.751-0.208,32.628-0.241    c0.026,0.549,0.049,1.097,0.076,1.646c0.074,1.519,0.119,3.038,0.177,4.557c-4.636,0.388-9.367,0.045-13.989-0.049    c-6.732-0.136-13.443-0.133-20.142-0.914c-0.8-0.093-0.791,1.158,0,1.25c6.693,0.78,13.412,0.809,20.142,0.914    c4.663,0.073,9.384,0.406,14.037,0.033c0.061,1.718,0.113,3.436,0.155,5.154c-4.833,0.199-9.655,0.601-14.499,0.5    c-6.458-0.134-12.857-1.273-19.335-1.351c-0.807-0.01-0.806,1.24,0,1.25c5.861,0.07,11.668,0.721,17.5,1.25    c5.428,0.493,10.911-0.11,16.36-0.382c0.046,2.133,0.087,4.267,0.108,6.4c-6.687,0.085-13.409,0.475-20.083,0.158    c-4.475-0.212-9.441-1.141-13.701,0.659c-0.74,0.313-0.103,1.389,0.631,1.079c4.557-1.925,10.387-0.512,15.185-0.415    c5.985,0.122,11.987-0.157,17.978-0.226c0.022,2.742,0.03,5.483,0.021,8.225c-10.973,1.222-22-0.403-32.999-0.499    c-0.807-0.007-0.806,1.243,0,1.25c11.009,0.096,22.013,1.67,32.993,0.497c-0.008,1.674-0.012,3.348-0.028,5.022    c-11.194,0.2-22.525,1.702-33.549-0.746c-0.785-0.175-1.119,1.03-0.332,1.205c11.139,2.474,22.56,0.985,33.866,0.79    c-0.027,2.522-0.059,5.044-0.098,7.567c-11.115-0.616-22.208-1.703-33.353-1.334c-0.804,0.026-0.807,1.277,0,1.25    c11.138-0.368,22.224,0.717,33.331,1.333c-0.034,2.149-0.069,4.299-0.107,6.448c-11.004-1.763-22.146-0.126-33.224-0.031    c-0.806,0.007-0.807,1.257,0,1.25c11.061-0.094,22.214-1.781,33.202,0.039c-0.028,1.583-0.056,3.166-0.084,4.749    c-11.29,0.096-22.576,0.441-33.868,0.463c-0.806,0.002-0.806,1.252,0,1.25c11.284-0.021,22.563-0.367,33.847-0.463    c-0.048,2.804-0.092,5.605-0.13,8.407c-11.493-0.804-22.96-2.01-34.467-0.694c-0.791,0.091-0.8,1.342,0,1.25    c11.501-1.315,22.963-0.11,34.451,0.693c-0.025,2.108-0.038,4.215-0.041,6.322c-11.498,0.166-23.132,1.61-34.494-0.743    c-0.786-0.163-1.121,1.042-0.332,1.205c11.481,2.378,23.211,0.952,34.828,0.788c0.001,2.314,0.014,4.63,0.036,6.944    c-4.704-0.07-9.405-0.221-14.107-0.392c-6.621-0.241-13.376,0.682-19.925-0.546c-0.787-0.147-1.124,1.057-0.332,1.205    c5.568,1.044,11.191,0.505,16.819,0.482c5.848-0.022,11.703,0.319,17.558,0.467c0.021,1.93,0.051,3.859,0.086,5.788    c-11.661,0.962-23.366-0.866-35.047-0.965c-0.807-0.007-0.806,1.243,0,1.25c6.281,0.053,12.56,0.591,18.835,0.936    c-0.161,0.031-0.326,0.076-0.498,0.146c-4.008,1.615-8.06,3.123-12.142,4.561c-1.982,0.061-3.965,0.167-5.945,0.358    c-0.795,0.077-0.803,1.327,0,1.25c0.56-0.054,1.12-0.094,1.681-0.136c-18.692,6.326-37.948,11.273-56.691,17.317    c-3.055,0.985-1.748,5.814,1.33,4.822c23.419-7.553,47.639-13.393,70.559-22.354c6.03,0.122,12.058,0.277,18.065-0.243    c0.053,2.146,0.109,4.291,0.172,6.437c-11.839,1.132-23.738,0.208-35.615,0.156c-0.807-0.004-0.806,1.246,0,1.25    c11.89,0.052,23.802,0.978,35.652-0.159c0.062,2.07,0.126,4.141,0.193,6.211c-4.881,0.431-9.833-0.123-14.735-0.303    c-6.931-0.255-13.924-0.222-20.86-0.249c-0.411-0.001-0.609,0.321-0.602,0.64c-6.918,2.173-13.646,5.173-20.328,7.954    c-1.127-0.205-2.273,0.284-2.479,1.761c-0.578,4.176,0.586,7.883,2.089,11.773c0.613,1.585,2.115,2.236,3.673,1.493    c4.602-2.192,19.235-7.424,23.083-2.123c-0.252,0.25-0.523,0.484-0.8,0.711c-1.629,0.014-3.258,0.038-4.887,0.041    c-0.806,0.001-0.806,1.251,0,1.25c1.07-0.002,2.141-0.021,3.211-0.026c-1.723,1.237-3.546,2.342-5.38,3.401    c-4.199,2.427-9.401,5.239-14.402,4.937c-3.222-0.194-3.203,4.807,0,5c5.52,0.334,11.172-2.325,16.069-5.12    c12.438-0.419,24.88-0.711,37.303-1.474c0.065,2.409,0.123,4.817,0.174,7.227c-4.649,0.351-9.328,0.374-13.988,0.366    c-7.734-0.014-15.91,0.229-23.57-1.038c-0.788-0.131-1.126,1.074-0.332,1.205c8.476,1.403,17.495,1.099,26.052,1.083    c3.952-0.007,7.919-0.081,11.865-0.376c0.043,2.123,0.079,4.247,0.107,6.371c-5.543,0.746-11.139,0.893-16.769,0.804    c-3.5-0.056-7-0.235-10.497-0.401c-3.672-0.174-7.848-0.919-11.177,0.27c0.754-0.269,0.429-1.477-0.332-1.205    c-0.146,0.052-0.292,0.104-0.438,0.156c-0.195,0.069-0.396,0.216-0.437,0.437c-0.021,0.114-0.042,0.229-0.063,0.344    c-0.073,0.401,0.17,0.781,0.603,0.791c13.014,0.281,26.199,1.785,39.127,0.064c0.023,2.043,0.041,4.087,0.048,6.131    C196.691,259.959,112.962,259.379,29.291,258.27z" fill="#2F353A"/><path d="M88.337,97.567c-5.607,0.443-11.271,0.463-16.81-0.561c-1.281-1.355-4.009-1.01-4.313,1.068    c-0.388,0.773-0.425,1.708-0.008,2.427c-0.147,7.641-3.16,15.319-4.656,22.792c-2.673,1.454-0.409,5.448,2.315,4.384    c0.626,0.042,1.233-0.142,1.671-0.589c2.167-0.507,4.781-0.13,6.828,0.004c3.381,0.221,6.742,0.67,10.133,0.716    c3.226,0.045,3.222-4.955,0-5c-4.764-0.065-10.422-1.455-15.513-0.995c0.813-3.437,1.812-6.9,2.641-10.381    c4.119,0.468,8.252,0.512,12.385,0.86c3.215,0.271,3.188-4.731,0-5c-3.79-0.32-7.606-0.295-11.386-0.726    c0.245-1.466,0.431-2.934,0.524-4.403c5.351,0.811,10.786,0.83,16.189,0.403C91.529,102.315,91.554,97.313,88.337,97.567z" fill="#2F353A"/><path d="M106.221,107.246c-2.681,0.226-5.336,0.313-8.02,0.081c-3.214-0.277-3.187,4.725,0,5    c2.684,0.232,5.339,0.145,8.02-0.081C109.409,111.978,109.436,106.976,106.221,107.246z" fill="#2F353A"/><path d="M104.734,114.29c-2.069,0.223-4.14,0.25-6.218,0.295c-1.384,0.03-2.818,0.059-3.893,1.042    c-2.385,2.18,1.161,5.706,3.535,3.535c-0.75,0.686-1.055,0.479-0.067,0.437c0.631-0.028,1.264-0.03,1.896-0.041    c1.587-0.028,3.168-0.098,4.748-0.268c1.354-0.146,2.5-1.027,2.5-2.5C107.234,115.538,106.092,114.144,104.734,114.29z" fill="#2F353A"/><path d="M131.238,102.188c-0.968,1.009-1.819,2.095-2.607,3.223c-0.051-0.46-0.106-0.921-0.189-1.389    c-0.233-1.324-1.862-2.107-3.075-1.746c-1.428,0.425-2.659,1.081-3.747,1.897c-0.689-1.842-3.397-2.762-4.398-0.539    c-2.268,5.033-4.089,10.196-5.242,15.603c-0.583,2.732,3.072,4.43,4.569,1.926c2.114-3.535,3.834-9.355,7.238-12.386    c-0.161,2.477-0.899,4.858-1.838,7.245c-1.133,2.877,3.011,3.962,4.569,1.926c1.956-2.555,3.414-5.448,5.142-8.148    c0.137,3.641-0.703,7.36-0.795,11.042c-0.081,3.227,4.919,3.219,5,0c0.148-5.942,1.944-11.83-0.449-17.551    C134.729,101.648,132.673,100.691,131.238,102.188z" fill="#2F353A"/><path d="M156.95,103.715c-7.052-1.261-13.584,3.115-15.755,9.854c-0.913,2.835-0.438,5.843,1.479,8.117    c2.523,2.992,7.255,2.623,10.654,1.982c3.166-0.597,1.821-5.415-1.33-4.821c-3.75,0.707-7.281,0.084-5.852-4.354    c1.231-3.82,5.495-6.669,9.473-5.957C158.772,109.1,160.12,104.281,156.95,103.715z" fill="#2F353A"/><path d="M172.508,98.507c-1.748-0.012-3.503,0.07-5.251,0.067c2.112-2.285,3.829-4.991,4.303-7.809    c0.374-2.227-0.445-4.296-2.717-5.017c-2.796-0.887-6.267,1.344-8.505,2.69c-2.759,1.66-0.246,5.984,2.523,4.317    c0.992-0.597,2.269-1.418,3.466-1.854c-1.088,2.933-3.834,5.733-6.36,7.446c-1.662,1.127-1.671,4.084,0.597,4.569    c3.968,0.849,7.923,0.562,11.944,0.588C175.733,103.527,175.731,98.527,172.508,98.507z" fill="#2F353A"/><path d="M189.683,121.744c10.095-11.049,7.195-24.553-2.688-34.464c-11.688-11.723-29.167-17.905-45.143-20.609    c-3.638-0.615-7.306-1.131-10.987-1.591c12.942-1.393,26.02-1.653,38.795-1.148c3.226,0.127,3.213-4.873,0-5    c-19.574-0.774-39.503,0.377-58.783,4.338c-7.367-0.433-14.739-0.643-22.048-0.664c-3.225-0.01-3.224,4.99,0,5    c1.624,0.005,3.259,0.014,4.902,0.027c-0.612,0.187-1.228,0.361-1.838,0.555C71.251,74.719,48.188,87.59,40.941,109.45    c-7.218,21.77,17.595,33.351,34.503,37.463c10.358,2.52,21.231,2.533,31.826,2.19c12.131-0.391,24.262-1.907,36.125-4.461    C160.033,141.06,177.919,134.62,189.683,121.744z M181.913,122.335c-18.39,16.13-46.811,20.151-70.267,21.566    c-20.586,1.241-47.584,0.628-62.63-15.916c-9.335-10.264-1.338-24.084,6.278-32.534c8.697-9.647,20.074-15.879,32.09-20.422    c7.809-2.952,15.893-5.222,24.124-6.936c16.294,0.794,32.763,2.869,47.701,8.304c10.52,3.827,21.676,9.896,28.35,19.154    C194.614,105.339,190.177,115.087,181.913,122.335z" fill="#2F353A"/><path d="M205.671,146.19c-1.438,1.381-0.473,4.565,1.768,4.268c10.743-1.428,21.522-2.771,31.993-5.658    c3.104-0.855,1.784-5.68-1.33-4.821c-7.376,2.034-14.905,3.296-22.467,4.366c6.031-4.776,12.426-10.007,13.204-17.471    c1.244-11.933-18.644-7.553-23.168-2.264c-2.084,2.436,1.436,5.989,3.535,3.535c2.243-2.621,7.248-3.673,10.502-3.979    c5.835-0.551,3.935,4.46,1.863,7.386C217.38,137.47,210.824,141.238,205.671,146.19z" fill="#2F353A"/><path d="M184.405,177.947c2.62-1.009,5.292-1.64,7.718-1.731c3.214-0.121,3.226-5.122,0-5    c-2.346,0.089-4.862,0.568-7.375,1.35c0.286-2.729,0.74-5.404,1.434-7.93c0.854-3.115-3.97-4.436-4.822-1.33    c-0.989,3.607-1.567,7.436-1.809,11.317c-3.945,1.908-7.559,4.481-10.079,7.39c-2.102,2.424,1.42,5.976,3.535,3.535    c1.656-1.91,3.912-3.696,6.431-5.188c0.085,4.134,0.516,8.239,1.225,12.122c0.579,3.168,5.397,1.822,4.822-1.33    C184.722,186.976,184.33,182.454,184.405,177.947z" fill="#2F353A"/><path d="M229.696,170.901c3.839-3.466,6.383-7.735,4.954-13.578c-0.277-1.131-1.316-1.76-2.411-1.835    c-7.2-0.495-15.992,1.451-19.3,8.613c-1.343,2.906,2.966,5.448,4.316,2.523c2.256-4.884,7.763-6.203,12.794-6.211    c0.088,6.757-9.246,10.748-14.125,13.928c-2.764,1.801-0.38,5.571,2.523,4.316c1.792-0.774,15.728-6.277,14.214-0.119    c-1.429,5.811-9.751,8.25-14.779,8.689c-3.187,0.278-3.214,5.281,0,5c8.051-0.703,19.305-5.066,19.937-14.579    C238.18,172.226,234.338,170.744,229.696,170.901z" fill="#2F353A"/></g></g><g id="Layer_2"/></svg>