<?xml version="1.0" ?><!DOCTYPE svg  PUBLIC '-//W3C//DTD SVG 1.1//EN'  'http://www.w3.org/Graphics/SVG/1.1/DTD/svg11.dtd'><svg height="280.563px" style="enable-background:new 0 0 285.473 280.563;" version="1.1" viewBox="0 0 285.473 280.563" width="285.473px" xml:space="preserve" xmlns="http://www.w3.org/2000/svg" xmlns:xlink="http://www.w3.org/1999/xlink"><g id="Layer_8"><g><path d="M226.574,169.645c0,32.208-26.104,58.312-58.311,58.312c-32.208,0-58.316-26.104-58.316-58.312    c0-32.208,26.108-58.316,58.316-58.316C200.471,111.329,226.574,137.437,226.574,169.645z" style="fill:#6FCACD;"/><polygon points="192.625,222.201 176.084,222.201 193.352,111.329 209.893,122.84   " style="fill:#9FD9DC;"/><polygon points="173.656,222.201 168.625,222.201 185.887,111.329 190.92,111.329   " style="fill:#9FD9DC;"/><path d="M59.101,0H14.726C6.549,0,0,6.55,0,14.692V59.07c0,8.179,6.549,14.849,14.726,14.849h44.375    c8.15,0,14.814-6.67,14.814-14.849V14.692C73.916,6.55,67.251,0,59.101,0L59.101,0z M60.587,58.834    c0,0.962-0.79,1.747-1.789,1.747h-44.25c-0.968,0-1.752-0.785-1.752-1.747V14.548c0-0.97,0.785-1.755,1.752-1.755h44.25    c0.999,0,1.789,0.785,1.789,1.755V58.834z M60.587,58.834"/><rect height="28.363" width="28.357" x="22.782" y="22.776"/><path d="M59.101,115.615H14.726C6.549,115.615,0,122.125,0,130.278v44.383c0,8.171,6.549,14.867,14.726,14.867h44.375    c8.15,0,14.814-6.696,14.814-14.867v-44.383C73.916,122.125,67.251,115.615,59.101,115.615L59.101,115.615z M60.587,174.63    c0,0.963-0.701,1.569-1.664,1.569H14.658c-0.962,0-1.862-0.606-1.862-1.569v-44.26c0-0.965,0.9-1.964,1.862-1.964h44.266    c0.962,0,1.664,0.999,1.664,1.964V174.63z M60.587,174.63"/><rect height="28.357" width="28.357" x="22.782" y="138.395"/><path d="M129.705,73.918h44.35c8.182,0,14.902-6.67,14.902-14.849V14.692C188.957,6.55,182.236,0,174.055,0h-44.35    c-8.181,0-14.663,6.55-14.663,14.692V59.07C115.042,67.249,121.524,73.918,129.705,73.918L129.705,73.918z M127.838,14.548    c0-0.97,0.779-1.755,1.742-1.755h44.292c0.969,0,1.752,0.785,1.752,1.755v44.287c0,0.962-0.783,1.747-1.752,1.747H129.58    c-0.962,0-1.742-0.785-1.742-1.747V14.548z M127.838,14.548"/><rect height="28.363" width="28.897" x="137.275" y="22.776"/><path d="M26.553,82.275h-9.777c-2.119,0-3.981,1.755-3.981,3.892v9.779c0,2.14,1.862,4.099,3.981,4.099h9.353v0.123    c0,2.142,1.501,3.767,3.62,3.767h21.929v0.458c0,2.142,1.909,3.981,4.018,3.981h9.803c2.145,0,3.986-1.839,3.986-3.981v-9.476    c0-2.14-1.841-3.769-3.986-3.769h-4.912v-4.98c0-2.137-1.69-3.892-3.83-3.892h-5.283c-2.113,0-3.677,1.755-3.677,3.892v4.98    H30.565v-4.98C30.565,84.03,28.693,82.275,26.553,82.275L26.553,82.275z M26.553,82.275"/><path d="M88.913,41.689v21.67c0,2.137,1.48,3.889,3.62,3.889h13.999c2.139,0,4.075-1.752,4.075-3.889v-9.785    c0-2.134-1.936-4.125-4.075-4.125h-4.829V19.455h0.602c2.14,0,3.866-1.647,3.866-3.769v-5.272c0-2.119-1.726-3.746-3.866-3.746    H83.792c-2.155,0-3.746,1.626-3.746,3.746v5.272c0,2.122,1.59,3.769,3.746,3.769h5.121v13.881h-5.121    c-2.155,0-3.746,1.815-3.746,3.955v0.728c0,2.108,1.59,3.672,3.746,3.672H88.913z M88.913,41.689"/><path d="M99.475,86.737v-9.5c0-2.142-1.721-3.863-3.86-3.863h-9.505c-2.114,0-3.866,1.721-3.866,3.863v9.5    c0,2.118,1.752,3.86,3.866,3.86h9.505C97.753,90.598,99.475,88.885,99.475,86.737L99.475,86.737z M99.475,86.737"/><path d="M116.366,90.059c-2.134,0-4.101,1.836-4.101,3.958v3.829c3.353-2.835,7-5.582,10.619-7.787H116.366z M116.366,90.059"/><g><defs><rect height="278.049" id="SVGID_1_" width="285.473"/></defs><clipPath id="SVGID_2_"><use style="overflow:visible;" xlink:href="#SVGID_1_"/></clipPath></g><path d="M111.271,98.928H94.646c-2.14,0-4.049,1.692-4.049,3.837v22.29c4.441-8.024,9.756-15.534,16.473-22.269    C108.404,101.468,109.853,100.045,111.271,98.928L111.271,98.928z M111.271,98.928"/><path d="M275.758,246.129l-36.389-36.377    c19.137-30.629,15.48-71.75-11.188-98.423c-31.012-30.986-81.459-31.021-112.48,0c-31.015,31.015-30.947,81.432,0.062,112.417    c26.668,26.668,67.554,30.565,98.449,11.168l36.389,36.351c6.967,7.005,18.219,7.062,25.219,0.058    C282.793,264.354,282.73,253.097,275.758,246.129L275.758,246.129z M213.037,208.632c-22.656,22.656-59.498,22.656-82.16,0    c-22.656-22.661-22.656-59.498,0-82.157c22.662-22.627,59.504-22.627,82.16,0C235.662,149.134,235.662,185.971,213.037,208.632    L213.037,208.632z M213.037,208.632" style="fill:#FFFFFF;stroke:#000000;stroke-width:8.035;stroke-miterlimit:10;"/></g></g><g id="Layer_1"/></svg>