<?xml version="1.0" ?><svg id="Lager_1" style="enable-background:new 0 0 128 128;" version="1.1" viewBox="0 0 128 128" xml:space="preserve" xmlns="http://www.w3.org/2000/svg" xmlns:xlink="http://www.w3.org/1999/xlink"><style type="text/css">
	.st0{fill:#264970;}
	.st1{fill:#FFFFFF;}
</style><g><g><g><g><circle class="st0" cx="64" cy="64" r="50"/></g></g></g></g><g><path class="st1" d="M51.7,36.9c-2.1,0-3.7,1.7-3.7,3.7c0,2.1,1.7,3.7,3.7,3.7c2.1,0,3.7-1.7,3.7-3.7   C55.4,38.6,53.8,36.9,51.7,36.9 M76.3,36.9c-2.1,0-3.7,1.7-3.7,3.7c0,2.1,1.7,3.7,3.7,3.7c2.1,0,3.7-1.7,3.7-3.7   C80,38.6,78.4,36.9,76.3,36.9 M64,33.5c-2.1,0-3.7,1.7-3.7,3.7c0,2.1,1.7,3.7,3.7,3.7c2.1,0,3.7-1.7,3.7-3.7   C67.7,35.1,66.1,33.5,64,33.5 M85.1,47.3c-0.2-0.2-0.5-0.2-0.7-0.2c-0.1,0-0.3,0-0.4,0.1c-2.5,1-5.1,1.7-7.5,2.3   c-0.5,0.1-0.9,0.5-1,0.9c-1.7,4.7-6.1,9.1-10.7,13.8c-0.2,0.2-0.4,0.4-0.9,0.4c-0.4,0-0.7-0.2-0.9-0.4c-4.6-4.7-9-9.1-10.7-13.8   c-0.2-0.4-0.5-0.8-1-0.9c-2.3-0.5-4.9-1.3-7.5-2.3c-0.1-0.1-0.3-0.1-0.4-0.1c-0.3,0-0.5,0.1-0.7,0.2c-0.3,0.2-0.5,0.6-0.5,1   c0.4,3.9,1.9,7.7,4.7,11.7c2.6,3.8,6,7.2,9.3,10.6c6.1,6.2,11.8,12,12.3,18.8c0,0.6,0.6,1.1,1.2,1.1H77c0.6,0,1.2-0.5,1.2-1.2   c0,0,0,0,0-0.1c-0.2-4.5-1.9-9.1-5.2-13.9c-0.7-1-1.4-2-2.2-2.9c-0.3-0.4-0.2-0.9,0.1-1.1c0.2-0.2,0.5-0.5,0.7-0.7   c3.3-3.4,6.7-6.8,9.3-10.6c2.8-4,4.3-7.8,4.7-11.7C85.6,48,85.5,47.6,85.1,47.3 M56.3,75.9c-0.2-0.2-0.4-0.4-0.8-0.4   c-0.5,0-0.8,0.4-1,0.6c-3,4.6-4.5,8.9-4.8,13.2c0,0.3,0.1,0.6,0.3,0.9c0.2,0.2,0.5,0.4,0.9,0.4h7.1c0.6,0,1.1-0.5,1.2-1.1   c0.2-2.1,0.8-4.2,2-6.4c0.4-0.8,0.1-1.5-0.1-1.8C59.9,79.8,58.5,78.1,56.3,75.9"/><path class="st1" d="M64,50.8c2.2,0,3.5-0.1,4-0.1c0.6,0,1.1,0.5,1.1,1.1c0,0.2,0,0.3-0.1,0.4c-0.3,0.8-1.6,3.6-4.2,6.1   c-0.3,0.3-0.6,0.3-0.8,0.3h0c-0.2,0-0.5-0.1-0.8-0.3c-2.5-2.4-3.9-5.3-4.2-6.1c0-0.1-0.1-0.2-0.1-0.4c0-0.6,0.5-1.1,1.1-1.1   C60.5,50.7,61.8,50.8,64,50.8L64,50.8"/></g></svg>