<?xml version="1.0" ?><!DOCTYPE svg  PUBLIC '-//W3C//DTD SVG 1.1//EN'  'http://www.w3.org/Graphics/SVG/1.1/DTD/svg11.dtd'><svg enable-background="new 0 0 64 64" height="64px" id="Vimeo" version="1.1" viewBox="0 0 64 64" width="64px" xml:space="preserve" xmlns="http://www.w3.org/2000/svg" xmlns:xlink="http://www.w3.org/1999/xlink"><linearGradient gradientTransform="matrix(1 0 0 -1 -1918 -2480)" gradientUnits="userSpaceOnUse" id="Circle_Shadow_1_" x1="1982.0313" x2="1950.0313" y1="-2543.999" y2="-2511.999"><stop offset="0.3163" style="stop-color:#FFFFFF;stop-opacity:0"/><stop offset="0.3508" style="stop-color:#E9E9E9;stop-opacity:0.0504"/><stop offset="0.4543" style="stop-color:#ACACAC;stop-opacity:0.2018"/><stop offset="0.5572" style="stop-color:#787878;stop-opacity:0.3523"/><stop offset="0.6569" style="stop-color:#4D4D4D;stop-opacity:0.4981"/><stop offset="0.7528" style="stop-color:#2B2B2B;stop-opacity:0.6385"/><stop offset="0.8441" style="stop-color:#131313;stop-opacity:0.7719"/><stop offset="0.9286" style="stop-color:#050505;stop-opacity:0.8956"/><stop offset="1" style="stop-color:#000000"/></linearGradient><polygon enable-background="new    " fill="url(#Circle_Shadow_1_)" id="Circle_Shadow" opacity="0.2" points="64.029,64   64.029,30.059 49,15.029 15.059,48.971 30.088,64 "/><circle cx="32" cy="32" fill="#20B9EB" id="Circle" r="24"/><g id="v_shadow"><g><defs><circle cx="32.029" cy="32" id="SVGID_1_" r="24"/></defs><clipPath id="SVGID_2_"><use overflow="visible" xlink:href="#SVGID_1_"/></clipPath><linearGradient gradientTransform="matrix(1 0 0 -1 -274 -299)" gradientUnits="userSpaceOnUse" id="SVGID_3_" x1="348.4473" x2="297.2895" y1="-368.6934" y2="-317.5357"><stop offset="0.4847" style="stop-color:#000000;stop-opacity:0"/><stop offset="1" style="stop-color:#000000"/></linearGradient><path clip-path="url(#SVGID_2_)" d="M77.721,52.79    c-0.035-0.037-0.072-0.071-0.107-0.106c-0.034-0.037-0.07-0.07-0.105-0.105c-0.035-0.038-0.072-0.072-0.107-0.107    c-0.033-0.035-0.067-0.068-0.103-0.103c-0.034-0.038-0.073-0.074-0.11-0.111c-0.033-0.036-0.069-0.069-0.104-0.104    c-0.034-0.035-0.069-0.069-0.106-0.105c-0.033-0.037-0.069-0.07-0.105-0.105c-0.034-0.037-0.071-0.071-0.105-0.106    c-0.033-0.036-0.07-0.069-0.104-0.104c-0.036-0.039-0.076-0.076-0.114-0.113c-0.031-0.033-0.064-0.064-0.098-0.098    c-0.035-0.037-0.072-0.072-0.109-0.109c-0.033-0.036-0.07-0.07-0.105-0.105c-0.034-0.037-0.07-0.07-0.106-0.106    c-0.034-0.037-0.071-0.071-0.106-0.107c-0.033-0.034-0.068-0.067-0.104-0.103c-0.036-0.038-0.074-0.074-0.111-0.111    c-0.033-0.035-0.068-0.066-0.102-0.102c-0.035-0.037-0.072-0.072-0.107-0.108s-0.07-0.069-0.106-0.106    c-0.034-0.037-0.07-0.069-0.106-0.105c-0.033-0.036-0.07-0.07-0.105-0.105c-0.033-0.035-0.068-0.068-0.104-0.104    c-0.036-0.039-0.073-0.075-0.112-0.112c-0.031-0.035-0.065-0.066-0.1-0.1c-0.035-0.038-0.072-0.074-0.109-0.11    c-0.035-0.036-0.07-0.069-0.105-0.104c-0.034-0.037-0.07-0.07-0.105-0.106c-0.035-0.037-0.072-0.071-0.106-0.106    c-0.033-0.035-0.068-0.067-0.104-0.104c-0.035-0.037-0.072-0.072-0.107-0.109s-0.072-0.07-0.107-0.106    c-0.033-0.036-0.07-0.069-0.105-0.104c-0.033-0.035-0.069-0.07-0.105-0.105c-0.033-0.037-0.07-0.07-0.105-0.105    c-0.034-0.037-0.07-0.07-0.106-0.106c-0.033-0.036-0.069-0.069-0.104-0.104c-0.035-0.037-0.073-0.074-0.11-0.111    c-0.031-0.032-0.063-0.063-0.097-0.097c-0.037-0.04-0.078-0.077-0.115-0.116c-0.033-0.035-0.069-0.067-0.104-0.103    c-0.035-0.037-0.07-0.069-0.107-0.106c-0.033-0.035-0.069-0.069-0.105-0.105c-0.033-0.037-0.07-0.07-0.105-0.105    c-0.034-0.037-0.071-0.072-0.107-0.107c-0.034-0.036-0.068-0.069-0.104-0.104c-0.035-0.037-0.071-0.072-0.106-0.106    c-0.035-0.037-0.071-0.071-0.106-0.107s-0.07-0.069-0.106-0.106c-0.034-0.035-0.07-0.069-0.106-0.105    c-0.033-0.036-0.07-0.07-0.104-0.105c-0.035-0.037-0.073-0.072-0.109-0.108c-0.032-0.035-0.067-0.067-0.102-0.103    c-0.036-0.037-0.074-0.072-0.11-0.109c-0.033-0.035-0.068-0.068-0.104-0.102c-0.034-0.039-0.071-0.074-0.107-0.109    c-0.033-0.036-0.07-0.07-0.105-0.105c-0.035-0.037-0.07-0.07-0.106-0.106c-0.034-0.037-0.071-0.071-0.106-0.106    c-0.033-0.035-0.069-0.07-0.104-0.104c-0.036-0.038-0.073-0.073-0.109-0.109c-0.033-0.036-0.068-0.068-0.103-0.104    C71.003,46.07,70.966,46.036,70.93,46c-0.033-0.036-0.07-0.07-0.105-0.105c-0.034-0.037-0.07-0.07-0.106-0.106    c-0.034-0.036-0.069-0.07-0.106-0.106c-0.032-0.035-0.068-0.068-0.104-0.104c-0.035-0.038-0.072-0.073-0.109-0.109    c-0.033-0.035-0.066-0.066-0.102-0.101c-0.035-0.039-0.072-0.075-0.109-0.111c-0.035-0.036-0.07-0.069-0.105-0.104    c-0.034-0.037-0.07-0.07-0.105-0.106s-0.07-0.069-0.106-0.106c-0.033-0.035-0.069-0.068-0.104-0.104    c-0.035-0.039-0.074-0.074-0.113-0.113c-0.031-0.033-0.065-0.065-0.1-0.1c-0.035-0.037-0.072-0.072-0.107-0.107    c-0.034-0.037-0.07-0.07-0.106-0.106c-0.034-0.037-0.069-0.07-0.106-0.106c-0.033-0.037-0.071-0.07-0.107-0.107    c-0.032-0.035-0.066-0.067-0.102-0.103c-0.037-0.038-0.074-0.073-0.111-0.11c-0.032-0.035-0.067-0.067-0.102-0.103    c-0.035-0.037-0.072-0.071-0.108-0.108c-0.034-0.037-0.07-0.069-0.105-0.104c-0.034-0.037-0.071-0.071-0.106-0.106    c-0.034-0.037-0.071-0.071-0.107-0.107c-0.033-0.036-0.068-0.069-0.104-0.104c-0.034-0.039-0.072-0.072-0.108-0.108    c-0.033-0.036-0.067-0.069-0.103-0.104c-0.035-0.037-0.072-0.072-0.108-0.107c-0.034-0.037-0.071-0.071-0.106-0.106    c-0.033-0.036-0.069-0.069-0.105-0.106c-0.034-0.035-0.07-0.069-0.105-0.105c-0.035-0.037-0.072-0.07-0.107-0.107    s-0.071-0.07-0.107-0.105c-0.033-0.036-0.068-0.068-0.104-0.104c-0.034-0.037-0.07-0.071-0.106-0.106    c-0.032-0.036-0.067-0.069-0.104-0.104c-0.034-0.037-0.072-0.074-0.109-0.109c-0.034-0.037-0.07-0.07-0.105-0.105    c-0.033-0.035-0.069-0.07-0.104-0.104c-0.034-0.037-0.072-0.072-0.108-0.108c-0.033-0.035-0.067-0.068-0.103-0.104    c-0.036-0.038-0.074-0.074-0.112-0.111c-0.031-0.034-0.066-0.066-0.101-0.1c-0.035-0.039-0.072-0.073-0.108-0.109    c-0.033-0.036-0.07-0.07-0.105-0.105c-0.034-0.037-0.07-0.07-0.106-0.106c-0.034-0.037-0.071-0.071-0.108-0.108    c-0.031-0.033-0.065-0.066-0.1-0.1c-0.038-0.04-0.076-0.078-0.115-0.116c-0.031-0.032-0.063-0.063-0.097-0.095    c-0.036-0.04-0.075-0.076-0.112-0.114c-0.033-0.036-0.07-0.069-0.104-0.104s-0.07-0.069-0.104-0.104    c-0.037-0.038-0.074-0.073-0.111-0.11c-0.032-0.035-0.067-0.067-0.103-0.103c-0.034-0.037-0.071-0.072-0.108-0.108    c-0.033-0.037-0.069-0.07-0.104-0.104c-0.034-0.036-0.069-0.069-0.104-0.104c-0.035-0.037-0.072-0.072-0.109-0.109    c-0.033-0.035-0.068-0.067-0.104-0.102c-0.035-0.039-0.072-0.074-0.109-0.111c-0.032-0.035-0.067-0.067-0.102-0.103    c-0.037-0.038-0.074-0.073-0.11-0.11c-0.033-0.035-0.068-0.067-0.103-0.103c-0.035-0.037-0.072-0.071-0.109-0.108    c-0.033-0.035-0.069-0.069-0.105-0.105c-0.033-0.037-0.07-0.07-0.105-0.105c-0.034-0.037-0.071-0.072-0.106-0.106    c-0.034-0.036-0.069-0.07-0.104-0.104c-0.035-0.039-0.073-0.074-0.109-0.109c-0.033-0.036-0.068-0.068-0.104-0.104    c-0.035-0.037-0.07-0.07-0.105-0.105c-0.034-0.036-0.071-0.071-0.105-0.106c-0.035-0.037-0.072-0.071-0.107-0.106    c-0.034-0.037-0.07-0.07-0.106-0.106c-0.034-0.037-0.071-0.071-0.106-0.106c-0.034-0.037-0.072-0.071-0.108-0.107    c-0.032-0.035-0.067-0.066-0.103-0.102c-0.034-0.037-0.071-0.072-0.107-0.108c-0.033-0.036-0.068-0.069-0.104-0.104    c-0.035-0.037-0.072-0.072-0.108-0.108c-0.034-0.036-0.069-0.07-0.106-0.106c-0.033-0.037-0.07-0.07-0.105-0.105    c-0.034-0.037-0.072-0.071-0.107-0.108c-0.033-0.035-0.068-0.067-0.103-0.103c-0.036-0.037-0.073-0.072-0.11-0.109    c-0.033-0.035-0.068-0.066-0.104-0.102c-0.034-0.039-0.07-0.072-0.106-0.108c-0.034-0.037-0.071-0.072-0.106-0.106    c-0.034-0.037-0.07-0.07-0.106-0.106c-0.034-0.037-0.071-0.071-0.106-0.106c-0.033-0.035-0.069-0.068-0.104-0.104    c-0.035-0.038-0.072-0.072-0.109-0.108c-0.033-0.036-0.07-0.069-0.104-0.104c-0.034-0.036-0.07-0.069-0.104-0.104    c-0.037-0.039-0.074-0.073-0.111-0.11c-0.032-0.035-0.066-0.065-0.1-0.1c-0.037-0.039-0.074-0.074-0.111-0.111    c-0.033-0.037-0.07-0.069-0.105-0.105c-0.033-0.036-0.068-0.069-0.104-0.104c-0.035-0.039-0.072-0.072-0.109-0.108    c-0.033-0.036-0.068-0.069-0.104-0.104c-0.035-0.037-0.071-0.07-0.106-0.105c-0.034-0.037-0.071-0.071-0.106-0.106    c-0.035-0.038-0.072-0.071-0.107-0.108c-0.033-0.035-0.069-0.067-0.104-0.103c-0.035-0.038-0.074-0.073-0.109-0.11    c-0.033-0.035-0.068-0.067-0.104-0.103c-0.035-0.037-0.072-0.071-0.107-0.108c-0.034-0.037-0.07-0.069-0.106-0.104    c-0.034-0.038-0.071-0.072-0.106-0.108c-0.034-0.037-0.071-0.07-0.106-0.105c-0.034-0.036-0.069-0.069-0.104-0.104    c-0.033-0.037-0.069-0.07-0.104-0.105c-0.034-0.038-0.071-0.072-0.106-0.108s-0.071-0.071-0.106-0.106    c-0.034-0.036-0.07-0.069-0.106-0.104c-0.033-0.037-0.07-0.071-0.105-0.106c-0.034-0.037-0.071-0.071-0.107-0.106    c-0.033-0.037-0.07-0.071-0.105-0.106c-0.033-0.035-0.069-0.069-0.104-0.104c-0.034-0.036-0.069-0.069-0.104-0.104    c-0.034-0.037-0.071-0.071-0.107-0.107c-0.033-0.037-0.07-0.071-0.105-0.105c-0.034-0.037-0.07-0.07-0.105-0.105    c-0.035-0.037-0.072-0.072-0.109-0.108c-0.031-0.034-0.066-0.067-0.101-0.102c-0.036-0.039-0.074-0.074-0.11-0.111    c-0.033-0.036-0.07-0.069-0.104-0.104c-0.035-0.038-0.073-0.073-0.11-0.11c-0.033-0.036-0.068-0.068-0.104-0.103    c-0.034-0.037-0.07-0.071-0.105-0.106c-0.033-0.037-0.07-0.072-0.107-0.107c-0.033-0.037-0.069-0.07-0.104-0.106    c-0.034-0.038-0.071-0.072-0.108-0.108c-0.033-0.036-0.068-0.069-0.104-0.104c-0.034-0.037-0.07-0.071-0.105-0.106    c-0.035-0.038-0.072-0.073-0.108-0.109c-0.034-0.036-0.07-0.069-0.104-0.104c-0.033-0.036-0.07-0.069-0.104-0.104    c-0.035-0.038-0.072-0.072-0.107-0.108s-0.07-0.07-0.105-0.105c-0.035-0.038-0.072-0.072-0.108-0.109    c-0.034-0.036-0.069-0.07-0.104-0.104c-0.034-0.037-0.07-0.071-0.105-0.106c-0.033-0.036-0.068-0.069-0.104-0.104    c-0.035-0.039-0.073-0.074-0.11-0.111c-0.034-0.037-0.071-0.07-0.106-0.106c-0.033-0.036-0.067-0.068-0.103-0.103    c-0.036-0.039-0.073-0.074-0.11-0.11c-0.033-0.036-0.068-0.069-0.104-0.104c-0.034-0.037-0.07-0.071-0.105-0.106    c-0.035-0.037-0.07-0.071-0.105-0.106c-0.035-0.038-0.072-0.072-0.109-0.108c-0.033-0.036-0.068-0.069-0.104-0.103    c-0.034-0.038-0.071-0.072-0.107-0.108c-0.033-0.038-0.07-0.072-0.107-0.108c-0.032-0.036-0.068-0.069-0.104-0.104    c-0.035-0.037-0.07-0.071-0.107-0.107c-0.033-0.037-0.069-0.071-0.105-0.107c-0.034-0.037-0.071-0.071-0.107-0.107    c-0.033-0.036-0.068-0.07-0.104-0.105c-0.035-0.037-0.071-0.071-0.107-0.107c-0.033-0.037-0.07-0.07-0.104-0.105    c-0.034-0.037-0.071-0.071-0.107-0.107c-0.034-0.037-0.071-0.071-0.106-0.107c-0.033-0.036-0.069-0.07-0.104-0.104    c-0.034-0.036-0.069-0.07-0.104-0.104c-0.034-0.038-0.071-0.073-0.108-0.109c-0.032-0.037-0.069-0.07-0.104-0.105    c-0.035-0.037-0.07-0.071-0.106-0.106c-0.034-0.037-0.069-0.071-0.106-0.106c-0.033-0.036-0.068-0.07-0.104-0.105    c-0.035-0.038-0.073-0.073-0.109-0.109c-0.033-0.036-0.068-0.07-0.104-0.104c-0.034-0.037-0.071-0.071-0.105-0.106    c-0.035-0.037-0.07-0.07-0.105-0.106c-0.034-0.037-0.071-0.071-0.106-0.106c-0.034-0.037-0.071-0.071-0.106-0.107    c-0.034-0.037-0.071-0.071-0.107-0.107c-0.031-0.036-0.066-0.068-0.102-0.103c-0.036-0.039-0.074-0.074-0.111-0.111    c-0.033-0.036-0.068-0.07-0.104-0.104c-0.035-0.037-0.071-0.072-0.107-0.107c-0.034-0.037-0.07-0.07-0.105-0.106    c-0.033-0.035-0.068-0.068-0.104-0.103c-0.036-0.039-0.074-0.075-0.111-0.112c-0.033-0.036-0.068-0.069-0.104-0.104    c-0.034-0.036-0.07-0.07-0.105-0.105c-0.033-0.037-0.07-0.071-0.105-0.106c-0.034-0.038-0.071-0.073-0.108-0.109    c-0.034-0.038-0.071-0.072-0.106-0.107c-0.033-0.036-0.068-0.068-0.104-0.103c-0.035-0.038-0.072-0.072-0.107-0.108    s-0.069-0.069-0.104-0.104c-0.035-0.038-0.072-0.072-0.106-0.108c-0.035-0.037-0.07-0.07-0.105-0.105    c-0.035-0.037-0.072-0.072-0.107-0.107c-0.033-0.036-0.068-0.07-0.104-0.104c-0.035-0.038-0.073-0.073-0.109-0.109    c-0.033-0.037-0.07-0.071-0.105-0.106c-0.033-0.035-0.067-0.068-0.103-0.102c-0.034-0.039-0.073-0.074-0.11-0.111    c-0.033-0.037-0.07-0.071-0.105-0.106c-0.034-0.036-0.068-0.069-0.104-0.104c-0.035-0.038-0.071-0.072-0.107-0.108    c-0.034-0.037-0.07-0.07-0.105-0.105c-0.035-0.038-0.072-0.072-0.108-0.109c-0.032-0.035-0.067-0.067-0.101-0.101    c-0.037-0.038-0.074-0.074-0.11-0.11c-0.034-0.037-0.071-0.07-0.106-0.106c-0.033-0.037-0.07-0.072-0.107-0.107    c-0.032-0.036-0.067-0.069-0.104-0.103c-0.033-0.037-0.07-0.071-0.105-0.107c-0.035-0.037-0.071-0.071-0.107-0.107    c-0.034-0.037-0.07-0.07-0.105-0.105c-0.033-0.037-0.07-0.072-0.106-0.107c-0.033-0.036-0.069-0.07-0.104-0.105    c-0.035-0.038-0.072-0.073-0.109-0.11c-0.033-0.036-0.069-0.068-0.104-0.103c-0.035-0.037-0.07-0.07-0.105-0.106    c-0.034-0.038-0.072-0.072-0.108-0.108c-0.032-0.037-0.069-0.07-0.104-0.105c-0.033-0.036-0.069-0.07-0.104-0.105    c-0.034-0.037-0.071-0.071-0.106-0.106c-0.033-0.037-0.07-0.071-0.106-0.107c-0.034-0.037-0.069-0.071-0.104-0.106    c-0.037-0.038-0.073-0.073-0.11-0.11c-0.033-0.035-0.067-0.068-0.103-0.102c-0.035-0.037-0.071-0.071-0.107-0.107    c-0.034-0.037-0.07-0.071-0.105-0.106c-0.033-0.037-0.07-0.071-0.105-0.107c-0.034-0.036-0.07-0.07-0.105-0.105    c-0.033-0.037-0.07-0.071-0.105-0.107c-0.035-0.037-0.071-0.071-0.107-0.106c-0.033-0.038-0.07-0.072-0.107-0.107    C42.746,17.592,34.959,19.81,33.927,26c0.052-0.03,0.097-0.049,0.146-0.077c-0.013,0.062-0.029,0.121-0.04,0.183    c0.051-0.03,0.097-0.049,0.146-0.077c-0.013,0.062-0.029,0.121-0.041,0.184c0.051-0.03,0.098-0.049,0.146-0.077    c-0.012,0.063-0.029,0.121-0.04,0.184c0.051-0.03,0.097-0.049,0.146-0.077c-0.012,0.062-0.029,0.121-0.039,0.184    c0.049-0.03,0.096-0.048,0.145-0.076c-0.012,0.062-0.028,0.119-0.039,0.182c0.051-0.03,0.098-0.049,0.146-0.077    c-0.013,0.062-0.029,0.121-0.041,0.184c0.051-0.03,0.098-0.049,0.146-0.077c-0.012,0.062-0.029,0.121-0.04,0.184    c0.052-0.03,0.097-0.049,0.146-0.077c-0.013,0.062-0.028,0.121-0.039,0.183c0.051-0.03,0.097-0.049,0.146-0.077    c-0.012,0.062-0.028,0.121-0.04,0.183c0.051-0.03,0.098-0.049,0.146-0.077c-0.012,0.062-0.029,0.121-0.041,0.184    c0.052-0.03,0.098-0.049,0.146-0.077c-0.012,0.062-0.029,0.121-0.04,0.184c0.052-0.03,0.097-0.049,0.146-0.077    c-0.012,0.062-0.028,0.121-0.039,0.184c0.05-0.03,0.096-0.048,0.145-0.076c-0.012,0.062-0.027,0.119-0.039,0.182    c0.051-0.03,0.098-0.049,0.146-0.077c-0.012,0.062-0.029,0.121-0.04,0.184c0.051-0.03,0.097-0.049,0.146-0.077    c-0.012,0.062-0.029,0.121-0.039,0.184c0.051-0.03,0.096-0.049,0.146-0.077c-0.013,0.062-0.029,0.121-0.04,0.184    c0.051-0.03,0.098-0.049,0.146-0.077c-0.014,0.062-0.029,0.121-0.041,0.183c0.051-0.03,0.097-0.049,0.146-0.077    c-0.014,0.062-0.029,0.121-0.04,0.183c0.051-0.031,0.099-0.049,0.147-0.078c-0.013,0.062-0.029,0.121-0.041,0.184    c0.052-0.03,0.098-0.049,0.146-0.077c-0.012,0.062-0.029,0.121-0.04,0.184c0.05-0.03,0.097-0.048,0.146-0.076    c-0.012,0.061-0.028,0.119-0.039,0.182c0.051-0.03,0.097-0.049,0.146-0.077c-0.012,0.062-0.028,0.121-0.04,0.184    c0.051-0.03,0.098-0.049,0.146-0.077c-0.012,0.062-0.029,0.121-0.04,0.184c0.051-0.03,0.097-0.049,0.146-0.077    c-0.013,0.062-0.029,0.121-0.039,0.183c0.049-0.03,0.096-0.049,0.146-0.077c-0.013,0.062-0.029,0.121-0.04,0.183    c0.051-0.031,0.098-0.049,0.146-0.078c-0.012,0.063-0.029,0.121-0.039,0.184c0.051-0.03,0.096-0.049,0.146-0.077    c-0.013,0.062-0.029,0.121-0.04,0.184c0.05-0.03,0.096-0.049,0.146-0.077c-0.013,0.062-0.029,0.121-0.041,0.183    c0.051-0.03,0.098-0.049,0.146-0.077c-0.014,0.062-0.029,0.121-0.04,0.183c0.052-0.03,0.097-0.049,0.146-0.077    c-0.012,0.062-0.028,0.121-0.039,0.184c0.051-0.03,0.097-0.049,0.146-0.077c-0.012,0.062-0.028,0.121-0.04,0.184    c0.051-0.03,0.096-0.048,0.145-0.076c-0.012,0.062-0.027,0.12-0.039,0.182c0.052-0.031,0.099-0.049,0.147-0.078    c-0.012,0.062-0.028,0.121-0.04,0.184c0.051-0.03,0.096-0.049,0.146-0.077c-0.012,0.062-0.029,0.121-0.04,0.184    c0.051-0.03,0.097-0.049,0.146-0.077c-0.012,0.062-0.029,0.121-0.039,0.184c0.051-0.031,0.098-0.049,0.146-0.078    c-0.012,0.063-0.029,0.121-0.04,0.184c0.05-0.03,0.096-0.048,0.146-0.077c-0.013,0.062-0.029,0.12-0.039,0.182    c0.033-0.021,0.064-0.033,0.1-0.053c-0.012,0.04-0.02,0.08-0.033,0.12c-0.018,0.052-0.037,0.104-0.057,0.157    c-0.026-0.028-0.055-0.052-0.082-0.079c-0.035-0.038-0.071-0.073-0.107-0.108c-0.033-0.037-0.07-0.072-0.105-0.106    c-0.035-0.037-0.071-0.072-0.107-0.107c-0.034-0.036-0.068-0.07-0.104-0.104c-0.037-0.038-0.072-0.074-0.109-0.109    c-0.034-0.036-0.069-0.069-0.104-0.103c-0.035-0.037-0.07-0.072-0.106-0.106c-0.035-0.037-0.07-0.072-0.106-0.107    c-0.035-0.037-0.068-0.071-0.104-0.105c-0.036-0.037-0.072-0.073-0.108-0.108c-0.034-0.037-0.069-0.072-0.106-0.106    c-0.034-0.038-0.071-0.073-0.107-0.108c-0.033-0.036-0.068-0.069-0.104-0.102c-0.034-0.038-0.069-0.073-0.105-0.107    c-0.035-0.038-0.072-0.073-0.107-0.109c-0.035-0.036-0.069-0.07-0.104-0.104c-0.035-0.038-0.071-0.073-0.106-0.108    c-0.035-0.037-0.07-0.071-0.105-0.106c-0.035-0.037-0.071-0.072-0.107-0.107c-0.035-0.038-0.072-0.073-0.107-0.108    c-0.034-0.036-0.068-0.069-0.104-0.102c-0.035-0.038-0.072-0.074-0.109-0.109c-0.033-0.036-0.067-0.07-0.104-0.104    c-0.035-0.037-0.07-0.071-0.105-0.106c-0.035-0.037-0.07-0.073-0.107-0.108c-0.035-0.038-0.07-0.072-0.107-0.107    c-0.033-0.037-0.068-0.071-0.104-0.105c-0.034-0.037-0.069-0.072-0.106-0.106c-0.033-0.036-0.068-0.071-0.104-0.104    c-0.035-0.038-0.071-0.073-0.107-0.108c-0.035-0.037-0.07-0.072-0.106-0.107c-0.034-0.036-0.069-0.07-0.104-0.104    c-0.035-0.037-0.07-0.072-0.107-0.107c-0.034-0.037-0.07-0.072-0.106-0.107c-0.034-0.037-0.069-0.071-0.104-0.105    c-0.035-0.037-0.07-0.072-0.105-0.106c-0.035-0.037-0.07-0.072-0.105-0.106c-0.034-0.037-0.07-0.072-0.105-0.106    c-0.035-0.038-0.072-0.073-0.107-0.108c-0.035-0.036-0.069-0.07-0.104-0.104c-0.035-0.038-0.071-0.073-0.106-0.108    c-0.035-0.037-0.07-0.071-0.105-0.105c-0.036-0.037-0.071-0.072-0.107-0.107c-0.035-0.037-0.07-0.071-0.104-0.105    c-0.035-0.037-0.07-0.071-0.104-0.105c-0.035-0.038-0.072-0.073-0.109-0.108c-0.033-0.037-0.068-0.071-0.104-0.105    c-0.034-0.037-0.069-0.072-0.104-0.106c-0.035-0.037-0.07-0.071-0.106-0.106c-0.034-0.037-0.069-0.072-0.106-0.107    c-0.036-0.038-0.072-0.073-0.108-0.108c-0.034-0.037-0.069-0.071-0.105-0.104c-0.035-0.037-0.07-0.072-0.106-0.106    c-0.035-0.037-0.07-0.071-0.106-0.105c-0.035-0.037-0.071-0.072-0.106-0.107c-0.035-0.037-0.07-0.071-0.105-0.105    c-0.035-0.037-0.071-0.072-0.107-0.107c-0.036-0.037-0.071-0.072-0.107-0.107c-0.035-0.037-0.071-0.071-0.106-0.106    c-0.035-0.037-0.071-0.072-0.106-0.106c-0.034-0.037-0.069-0.071-0.105-0.105c-0.035-0.037-0.07-0.072-0.106-0.106    c-0.035-0.037-0.071-0.072-0.107-0.107c-0.035-0.037-0.071-0.072-0.106-0.106c-0.035-0.037-0.07-0.071-0.105-0.105    c-0.036-0.038-0.072-0.073-0.108-0.108c-0.035-0.037-0.07-0.071-0.105-0.105c-0.035-0.037-0.071-0.072-0.106-0.106    c-0.035-0.037-0.07-0.071-0.106-0.106c-0.035-0.037-0.071-0.072-0.106-0.106c-0.035-0.037-0.071-0.072-0.106-0.107    c-0.035-0.037-0.071-0.072-0.106-0.106c-0.036-0.038-0.072-0.072-0.108-0.107c-0.034-0.036-0.068-0.069-0.103-0.103    c-0.036-0.038-0.072-0.074-0.109-0.109c-0.035-0.037-0.07-0.071-0.105-0.106c-0.035-0.037-0.07-0.072-0.106-0.106    c-0.035-0.037-0.07-0.072-0.106-0.106c-0.035-0.037-0.07-0.071-0.106-0.105c-0.036-0.038-0.072-0.073-0.108-0.109    c-0.034-0.036-0.069-0.07-0.104-0.104c-0.035-0.037-0.07-0.072-0.106-0.106c-0.036-0.038-0.072-0.073-0.108-0.108    c-0.035-0.037-0.07-0.071-0.105-0.105c-0.034-0.037-0.069-0.071-0.104-0.105c-0.036-0.038-0.073-0.073-0.109-0.109    c-0.035-0.037-0.07-0.071-0.106-0.105c-0.034-0.036-0.069-0.07-0.104-0.104c-0.036-0.038-0.072-0.073-0.108-0.108    c-0.035-0.037-0.07-0.071-0.105-0.105c-0.035-0.037-0.071-0.072-0.106-0.106c-0.035-0.037-0.07-0.071-0.105-0.106    c-0.036-0.037-0.072-0.073-0.108-0.107c-0.035-0.038-0.071-0.072-0.107-0.107c-0.034-0.037-0.069-0.071-0.104-0.104    c-0.035-0.037-0.071-0.072-0.106-0.107c-0.035-0.037-0.07-0.071-0.106-0.106C27.022,19.287,26.512,19,25.927,19c-3,0-4,1-4,1    c-2.788,2.286-5,6.035-5,6.035l0.108,0.104l-0.001,0.002l0.108,0.104l-0.001,0.002l0.108,0.104l-0.001,0.002l0.108,0.104    l-0.001,0.002l0.107,0.104l-0.001,0.002l0.108,0.104l-0.001,0.002l0.108,0.104l-0.001,0.002l0.107,0.104l-0.001,0.002l0.108,0.104    l-0.001,0.002l0.108,0.104l-0.001,0.002l0.108,0.104l-0.001,0.002l0.108,0.104l-0.001,0.002l0.107,0.104l-0.001,0.002l0.108,0.104    l-0.001,0.002l0.108,0.104l-0.001,0.002l0.107,0.104l-0.001,0.002l0.108,0.104l-0.001,0.002l0.108,0.104l-0.001,0.002l0.108,0.104    l-0.001,0.002l0.108,0.104l-0.001,0.002l0.107,0.104l-0.001,0.002l0.108,0.104l-0.001,0.002l0.108,0.104l-0.001,0.002l0.107,0.104    l-0.001,0.002l0.108,0.104l-0.001,0.002l0.108,0.104l-0.001,0.002l0.108,0.104l-0.001,0.002l0.108,0.104l-0.001,0.002l0.107,0.104    l-0.001,0.002l0.108,0.104l-0.001,0.002l0.108,0.104l-0.001,0.002l0.107,0.104l-0.001,0.002l0.108,0.104l-0.001,0.002l0.108,0.104    l-0.001,0.002l0.108,0.104l-0.001,0.002l0.107,0.104l-0.001,0.002l0.107,0.104l-0.001,0.002l0.108,0.104l-0.001,0.002l0.108,0.104    l-0.001,0.002l0.108,0.104l-0.001,0.002l0.108,0.104l-0.001,0.002l0.108,0.104L21.393,30.5l0.108,0.104L21.5,30.606l0.108,0.104    l-0.001,0.002l0.107,0.104l-0.001,0.002l0.108,0.104l-0.001,0.002l0.108,0.104l-0.001,0.002l0.107,0.104l-0.001,0.002l0.108,0.104    l-0.001,0.002l0.108,0.104l-0.001,0.002l0.108,0.104l-0.001,0.002l0.108,0.104l-0.001,0.002l0.107,0.104l-0.001,0.002l0.108,0.104    l-0.001,0.002l0.108,0.104l-0.001,0.002l0.107,0.104l-0.001,0.002l0.108,0.104l-0.001,0.002l0.108,0.104l-0.001,0.002l0.107,0.104    l-0.001,0.003l0.108,0.104l-0.001,0.002l0.107,0.104l-0.001,0.002l0.077,0.073c1.052,3.47,2.335,7.201,3.438,9.406    c0.266,0.53,0.606,0.987,0.994,1.377c0.035,0.037,0.071,0.071,0.106,0.106c0.035,0.037,0.071,0.071,0.107,0.106    c0.035,0.037,0.071,0.071,0.106,0.106c0.036,0.037,0.073,0.072,0.109,0.107c0.034,0.036,0.069,0.068,0.104,0.104    c0.034,0.037,0.071,0.07,0.106,0.106c0.034,0.035,0.069,0.069,0.104,0.104c0.036,0.037,0.073,0.072,0.109,0.109    c0.034,0.036,0.071,0.07,0.106,0.105c0.034,0.037,0.071,0.07,0.106,0.105c0.035,0.037,0.072,0.071,0.107,0.107    c0.034,0.036,0.07,0.068,0.105,0.104c0.035,0.037,0.071,0.071,0.107,0.107c0.035,0.037,0.071,0.07,0.106,0.105    c0.034,0.035,0.069,0.068,0.103,0.104c0.036,0.038,0.073,0.073,0.109,0.109c0.035,0.037,0.072,0.07,0.107,0.106    c0.034,0.036,0.07,0.069,0.105,0.104c0.035,0.037,0.071,0.07,0.106,0.107c0.035,0.035,0.071,0.069,0.106,0.105    c0.035,0.035,0.071,0.07,0.106,0.105c0.035,0.036,0.072,0.07,0.107,0.106c0.034,0.036,0.069,0.069,0.104,0.104    c0.035,0.035,0.071,0.069,0.106,0.104c0.036,0.038,0.073,0.073,0.109,0.108c0.034,0.037,0.07,0.07,0.105,0.105    c0.035,0.037,0.072,0.071,0.108,0.107c0.034,0.035,0.069,0.068,0.104,0.104c0.035,0.037,0.071,0.072,0.107,0.107    c0.034,0.037,0.07,0.07,0.106,0.105c0.034,0.036,0.071,0.07,0.106,0.106c0.035,0.036,0.072,0.071,0.108,0.106    c0.034,0.035,0.069,0.068,0.104,0.104c0.035,0.037,0.072,0.071,0.108,0.108c0.035,0.037,0.072,0.07,0.108,0.106    c0.034,0.035,0.069,0.067,0.104,0.104c0.034,0.035,0.071,0.069,0.106,0.105c0.035,0.037,0.072,0.072,0.108,0.107    c0.035,0.037,0.072,0.072,0.107,0.107c0.034,0.036,0.07,0.068,0.104,0.104c0.035,0.037,0.071,0.072,0.106,0.107    c0.034,0.035,0.069,0.068,0.104,0.104c0.036,0.037,0.073,0.074,0.11,0.109c0.033,0.035,0.066,0.067,0.102,0.103    c0.034,0.037,0.071,0.073,0.107,0.108c0.035,0.037,0.072,0.071,0.107,0.107c0.035,0.037,0.072,0.071,0.106,0.105    c0.034,0.037,0.07,0.07,0.104,0.105c0.035,0.036,0.07,0.07,0.105,0.105c0.035,0.037,0.071,0.07,0.107,0.105    c0.033,0.037,0.07,0.071,0.104,0.105c0.034,0.037,0.07,0.07,0.104,0.104c0.035,0.037,0.07,0.071,0.107,0.107    c0.033,0.036,0.07,0.071,0.105,0.106c0.035,0.037,0.072,0.072,0.109,0.109c0.033,0.035,0.067,0.066,0.103,0.102    c0.035,0.037,0.071,0.072,0.108,0.109c0.035,0.036,0.07,0.068,0.104,0.104c0.035,0.037,0.071,0.071,0.106,0.106    c0.033,0.036,0.068,0.067,0.104,0.104c0.036,0.037,0.073,0.072,0.109,0.109c0.035,0.037,0.07,0.07,0.105,0.105    c0.034,0.035,0.07,0.07,0.105,0.104c0.035,0.038,0.072,0.072,0.107,0.108c0.033,0.035,0.068,0.068,0.104,0.104    c0.035,0.037,0.072,0.071,0.107,0.108c0.035,0.036,0.071,0.069,0.106,0.104c0.034,0.037,0.069,0.069,0.104,0.105    c0.035,0.037,0.072,0.072,0.108,0.109c0.034,0.035,0.069,0.067,0.104,0.103c0.035,0.038,0.072,0.073,0.109,0.11    c0.033,0.035,0.068,0.068,0.104,0.103c0.035,0.037,0.07,0.071,0.107,0.106c0.033,0.037,0.07,0.072,0.106,0.107    c0.034,0.037,0.071,0.071,0.106,0.106c0.033,0.036,0.069,0.069,0.104,0.104c0.034,0.036,0.069,0.07,0.104,0.105    c0.035,0.037,0.071,0.07,0.107,0.107c0.034,0.035,0.068,0.068,0.104,0.104c0.035,0.037,0.073,0.072,0.109,0.109    c0.033,0.035,0.066,0.066,0.102,0.102c0.035,0.038,0.074,0.073,0.109,0.109c0.035,0.037,0.071,0.07,0.107,0.106    c0.033,0.036,0.068,0.069,0.104,0.104c0.036,0.037,0.074,0.072,0.111,0.109c0.031,0.035,0.066,0.067,0.102,0.103    c0.035,0.038,0.073,0.073,0.109,0.108c0.034,0.036,0.068,0.068,0.104,0.104c0.035,0.038,0.071,0.072,0.108,0.109    c0.033,0.035,0.069,0.068,0.104,0.104c0.035,0.037,0.07,0.072,0.106,0.107c0.035,0.037,0.073,0.072,0.11,0.109    c0.031,0.035,0.066,0.067,0.101,0.102c0.036,0.037,0.074,0.072,0.11,0.109c0.033,0.036,0.07,0.069,0.104,0.104    c0.035,0.036,0.071,0.071,0.107,0.106c0.033,0.036,0.07,0.069,0.105,0.105c0.032,0.035,0.067,0.068,0.103,0.104    c0.037,0.038,0.075,0.074,0.112,0.112c0.033,0.035,0.068,0.067,0.104,0.103c0.035,0.037,0.072,0.071,0.107,0.108    c0.033,0.035,0.07,0.067,0.104,0.104c0.035,0.037,0.072,0.072,0.109,0.108c0.032,0.035,0.067,0.067,0.102,0.103    c0.036,0.037,0.073,0.072,0.11,0.109c0.033,0.037,0.07,0.07,0.105,0.105c0.033,0.035,0.069,0.07,0.104,0.105    c0.034,0.037,0.073,0.072,0.108,0.109c0.033,0.034,0.067,0.066,0.103,0.102c0.036,0.037,0.073,0.072,0.11,0.109    c0.033,0.036,0.07,0.068,0.104,0.104c0.035,0.037,0.071,0.07,0.105,0.106c0.035,0.037,0.072,0.07,0.106,0.106    c0.034,0.035,0.069,0.067,0.104,0.104c0.035,0.038,0.074,0.074,0.111,0.111c0.033,0.035,0.068,0.068,0.104,0.104    c0.033,0.036,0.068,0.069,0.104,0.104c0.035,0.038,0.072,0.071,0.108,0.108c0.036,0.039,0.073,0.073,0.11,0.11    c0.033,0.035,0.067,0.065,0.102,0.101c0.036,0.039,0.073,0.072,0.109,0.109c0.033,0.036,0.07,0.068,0.104,0.104    c0.033,0.037,0.069,0.07,0.104,0.105c0.035,0.037,0.072,0.073,0.109,0.109c0.032,0.035,0.066,0.066,0.102,0.102    c0.035,0.038,0.072,0.073,0.109,0.11c0.033,0.036,0.07,0.069,0.105,0.104c0.035,0.038,0.072,0.072,0.107,0.108    s0.069,0.069,0.104,0.104c0.034,0.035,0.069,0.069,0.104,0.104c0.035,0.037,0.071,0.071,0.107,0.106    c0.034,0.037,0.07,0.069,0.105,0.105c0.033,0.036,0.069,0.07,0.104,0.105c0.034,0.035,0.07,0.069,0.104,0.105    c0.037,0.037,0.074,0.072,0.109,0.107c0.034,0.037,0.071,0.072,0.106,0.106c0.034,0.036,0.069,0.069,0.104,0.104    c0.034,0.037,0.07,0.07,0.106,0.105c0.032,0.036,0.067,0.069,0.104,0.104c0.035,0.038,0.073,0.073,0.11,0.11    c0.033,0.036,0.069,0.068,0.104,0.104c0.033,0.035,0.067,0.067,0.103,0.103c0.036,0.039,0.073,0.073,0.11,0.11    c0.035,0.038,0.072,0.072,0.107,0.108c0.034,0.037,0.07,0.068,0.104,0.104c0.035,0.036,0.07,0.07,0.105,0.104    c0.035,0.037,0.071,0.072,0.107,0.106c0.033,0.037,0.07,0.07,0.105,0.104c0.033,0.037,0.068,0.07,0.104,0.105    c0.035,0.038,0.072,0.073,0.109,0.109c0.033,0.035,0.068,0.068,0.104,0.104c0.035,0.038,0.072,0.072,0.107,0.109    c0.033,0.035,0.069,0.068,0.104,0.104c0.035,0.037,0.071,0.072,0.108,0.109c0.033,0.035,0.07,0.068,0.104,0.104    c0.035,0.037,0.072,0.072,0.108,0.108c0.033,0.036,0.07,0.07,0.104,0.104c0.034,0.037,0.07,0.07,0.106,0.105    c0.033,0.037,0.07,0.071,0.105,0.107c0.034,0.035,0.07,0.07,0.105,0.105c0.035,0.036,0.07,0.07,0.107,0.105    c0.033,0.037,0.069,0.07,0.104,0.105c0.034,0.036,0.069,0.07,0.104,0.105c0.035,0.037,0.071,0.07,0.107,0.107    c0.034,0.037,0.07,0.07,0.105,0.105c0.035,0.037,0.071,0.07,0.106,0.105c0.034,0.037,0.07,0.069,0.104,0.104    c0.035,0.038,0.072,0.072,0.108,0.108c0.033,0.035,0.068,0.067,0.103,0.103c0.037,0.039,0.074,0.075,0.111,0.112    c0.033,0.035,0.067,0.066,0.103,0.102c0.034,0.037,0.071,0.072,0.108,0.108c0.034,0.036,0.07,0.071,0.106,0.106    c0.034,0.036,0.069,0.068,0.104,0.104c0.035,0.038,0.072,0.071,0.108,0.108c0.033,0.035,0.069,0.068,0.104,0.104    c0.035,0.037,0.072,0.072,0.108,0.108c0.033,0.035,0.069,0.068,0.104,0.104c0.035,0.037,0.072,0.072,0.107,0.108    c0.034,0.035,0.07,0.068,0.105,0.104c0.033,0.036,0.068,0.07,0.104,0.105c0.035,0.037,0.073,0.072,0.109,0.109    c0.033,0.035,0.07,0.068,0.104,0.104c0.035,0.037,0.071,0.07,0.107,0.105c0.033,0.036,0.068,0.069,0.104,0.104    c0.035,0.038,0.073,0.073,0.109,0.108c0.034,0.037,0.07,0.07,0.105,0.105c0.033,0.036,0.07,0.07,0.104,0.105    c0.035,0.037,0.071,0.07,0.106,0.105c0.035,0.037,0.07,0.071,0.105,0.105c0.035,0.037,0.071,0.072,0.107,0.106    c0.033,0.036,0.068,0.069,0.103,0.104c0.036,0.039,0.075,0.074,0.112,0.111c0.033,0.036,0.068,0.068,0.104,0.104    c0.033,0.034,0.068,0.067,0.104,0.103c0.037,0.039,0.074,0.075,0.113,0.113c0.033,0.035,0.067,0.068,0.103,0.104    c0.035,0.037,0.071,0.07,0.106,0.105c0.035,0.037,0.07,0.07,0.105,0.105c0.034,0.037,0.07,0.07,0.105,0.105    c0.035,0.037,0.07,0.071,0.106,0.107c0.035,0.037,0.071,0.07,0.107,0.106c0.034,0.036,0.069,0.07,0.104,0.105    c0.034,0.036,0.07,0.069,0.105,0.104c0.035,0.037,0.07,0.071,0.107,0.106c0.033,0.037,0.069,0.071,0.104,0.106    c0.034,0.035,0.069,0.069,0.104,0.104c0.035,0.036,0.071,0.071,0.106,0.106c0.035,0.037,0.071,0.07,0.106,0.106    c0.035,0.037,0.072,0.072,0.108,0.108c0.033,0.035,0.069,0.067,0.104,0.104c0.035,0.037,0.07,0.071,0.106,0.105    c0.033,0.037,0.068,0.068,0.103,0.104c0.037,0.039,0.076,0.075,0.113,0.113c0.033,0.036,0.069,0.067,0.104,0.104    c0.032,0.035,0.069,0.068,0.104,0.104c0.033,0.035,0.069,0.07,0.104,0.105c0.034,0.037,0.071,0.07,0.106,0.106    c0.035,0.037,0.07,0.071,0.106,0.106c0.034,0.037,0.069,0.07,0.104,0.105c0.035,0.037,0.071,0.071,0.107,0.105    c0.034,0.037,0.07,0.07,0.105,0.106c0.033,0.036,0.068,0.069,0.104,0.104c0.036,0.039,0.074,0.074,0.111,0.111    c0.033,0.035,0.068,0.068,0.104,0.104c0.035,0.037,0.071,0.07,0.107,0.105c0.033,0.037,0.07,0.071,0.105,0.106    c0.034,0.037,0.07,0.071,0.106,0.106c0.032,0.035,0.067,0.068,0.103,0.104c0.037,0.038,0.073,0.072,0.11,0.109    c0.034,0.037,0.071,0.071,0.106,0.106c0.033,0.037,0.07,0.069,0.104,0.104c0.035,0.037,0.071,0.07,0.107,0.105    c0.033,0.037,0.07,0.071,0.104,0.105c0.035,0.037,0.071,0.072,0.107,0.106c0.034,0.037,0.069,0.071,0.104,0.106    c0.035,0.037,0.071,0.07,0.107,0.105c0.033,0.037,0.07,0.07,0.105,0.106c0.032,0.034,0.067,0.067,0.104,0.103    c0.035,0.039,0.074,0.075,0.111,0.113c0.033,0.036,0.068,0.068,0.104,0.104c0.035,0.037,0.07,0.07,0.107,0.105    c0.033,0.037,0.069,0.071,0.104,0.105c0.034,0.037,0.069,0.068,0.104,0.104c0.035,0.038,0.074,0.074,0.11,0.111    c0.034,0.036,0.07,0.069,0.105,0.104c0.034,0.036,0.069,0.069,0.104,0.104c0.034,0.036,0.07,0.071,0.105,0.106    c0.035,0.036,0.07,0.07,0.107,0.105c0.033,0.037,0.069,0.07,0.104,0.105c0.034,0.037,0.071,0.071,0.106,0.106    c0.033,0.036,0.068,0.069,0.104,0.104c0.035,0.037,0.073,0.072,0.108,0.108s0.07,0.07,0.105,0.104    c0.034,0.037,0.07,0.07,0.105,0.105c0.035,0.037,0.07,0.071,0.106,0.105c0.034,0.037,0.07,0.072,0.104,0.106    c0.035,0.037,0.072,0.071,0.107,0.106c0.035,0.037,0.071,0.072,0.107,0.107c0.033,0.035,0.068,0.067,0.104,0.103    c0.034,0.038,0.071,0.071,0.107,0.108c0.033,0.037,0.07,0.07,0.105,0.105c0.035,0.037,0.07,0.07,0.106,0.107    c0.034,0.035,0.069,0.069,0.104,0.104c0.035,0.037,0.071,0.071,0.107,0.106c0.033,0.035,0.068,0.068,0.104,0.104    c0.037,0.038,0.074,0.073,0.109,0.109c0.034,0.035,0.07,0.07,0.105,0.104c0.035,0.037,0.07,0.07,0.104,0.105    c0.035,0.036,0.071,0.071,0.107,0.106c0.034,0.036,0.069,0.07,0.104,0.105c0.035,0.037,0.071,0.07,0.107,0.105    c0.033,0.036,0.068,0.07,0.104,0.105c0.035,0.037,0.072,0.072,0.108,0.107c0.035,0.037,0.071,0.071,0.106,0.107    c0.033,0.035,0.069,0.068,0.104,0.104c0.035,0.037,0.071,0.07,0.106,0.106c0.035,0.037,0.07,0.071,0.105,0.106    c0.035,0.037,0.071,0.07,0.107,0.105c0.033,0.037,0.07,0.071,0.105,0.107c0.034,0.035,0.069,0.068,0.104,0.104    c0.035,0.037,0.072,0.072,0.109,0.108c0.034,0.038,0.071,0.071,0.108,0.108c0.032,0.035,0.067,0.067,0.103,0.103    c0.034,0.037,0.071,0.071,0.106,0.106c0.035,0.037,0.071,0.071,0.106,0.106c0.035,0.037,0.07,0.071,0.105,0.106    c0.035,0.037,0.072,0.07,0.107,0.106c0.033,0.036,0.07,0.069,0.104,0.104s0.07,0.07,0.104,0.104    c0.035,0.037,0.072,0.071,0.107,0.107c0.034,0.036,0.07,0.071,0.105,0.106c0.035,0.036,0.07,0.07,0.107,0.105    c0.033,0.037,0.069,0.07,0.104,0.105c0.034,0.037,0.071,0.071,0.106,0.106c0.034,0.037,0.071,0.071,0.106,0.106    c0.034,0.037,0.069,0.07,0.104,0.105c0.034,0.036,0.07,0.068,0.105,0.104c0.034,0.037,0.07,0.071,0.105,0.107    c0.035,0.037,0.071,0.071,0.107,0.107C60.896,76.422,62.411,77,63.928,77c1.999,0,3.905-1.104,4.999-2    c2.788-2.286,8.325-7.555,10-17C79.355,55.585,78.801,53.871,77.721,52.79z" enable-background="new    " fill="url(#SVGID_3_)" opacity="0.4"/></g></g><path d="M17.927,27c0,0,3-3,4,0c1,4,3.232,11.465,5,15c1,2,3,3,5,3s3.906-1.104,5-2  c2.788-2.286,8.325-7.555,10-17c1.677-9.441-11.629-8.226-13,0c3.429-2.058,5,1,4,4s-3,6-4,6c-0.836,0-2.042-2.171-3-6  c-0.903-3.615-2-11-5-11s-4,1-4,1c-2.788,2.286-5,6.035-5,6.035L17.927,27z" fill="#FFFFFF" id="v_1_"/></svg>