<?xml version="1.0" ?><svg height="32" width="32" xmlns="http://www.w3.org/2000/svg"><path clip-rule="evenodd" d="M15.999.002c8.837 0 16 7.164 16 16 0 8.837-7.163 16-16 16s-16-7.163-16-16c0-8.836 7.163-16 16-16z" fill="#C8232C" fill-rule="evenodd"/><path d="M16.483 7.008c-5.638 0-8.479 3.914-8.479 7.177 0 1.976.772 3.734 2.43 4.389.271.107.516.004.594-.287l.242-.923c.08-.287.049-.389-.17-.64-.479-.545-.783-1.252-.783-2.253 0-2.903 2.243-5.502 5.841-5.502 3.187 0 4.937 1.885 4.937 4.402 0 3.312-1.514 6.108-3.762 6.108-1.24 0-2.17-.993-1.872-2.214.356-1.454 1.048-3.025 1.048-4.076 0-.939-.521-1.725-1.601-1.725-1.269 0-2.288 1.271-2.288 2.974 0 1.085.379 1.818.379 1.818l-1.527 6.261c-.453 1.857-.067 4.135-.035 4.365.02.136.2.168.282.066.117-.148 1.628-1.955 2.142-3.761.146-.511.835-3.158.835-3.158.412.763 1.617 1.433 2.898 1.433 3.813 0 6.401-3.367 6.401-7.873-.001-3.407-2.981-6.581-7.512-6.581z" fill="#fff"/></svg>
