<?xml version="1.0" ?><!DOCTYPE svg  PUBLIC '-//W3C//DTD SVG 1.1//EN'  'http://www.w3.org/Graphics/SVG/1.1/DTD/svg11.dtd'><svg enable-background="new 0 0 50 50" id="Layer_1" version="1.1" viewBox="0 0 50 50" xml:space="preserve" xmlns="http://www.w3.org/2000/svg" xmlns:xlink="http://www.w3.org/1999/xlink"><path d="M45,1H5C2.8,1,1,2.8,1,5v40c0,2.2,1.8,4,4,4h40c2.2,0,4-1.8,4-4V5C49,2.8,47.2,1,45,1z" fill="#2C4762"/><path d="M33,34c-1,1-2.2,1-3,1c-2,0-3-1.7-3-3V22h6v-4h-6v-8h-5c0,0,0,0.8,0,1c-0.3,2.3,0,5-6,7v4h5v10  c0,3.4,0.5,8.1,7,8c2.2,0,5.5-1.2,6-2L33,34z" fill="#FFFFFF" id="t_1_"/></svg>