<?xml version="1.0" ?><!DOCTYPE svg  PUBLIC '-//W3C//DTD SVG 1.1//EN'  'http://www.w3.org/Graphics/SVG/1.1/DTD/svg11.dtd'><svg enable-background="new 0 0 24 24" height="24px" id="Layer_1" version="1.1" viewBox="0 0 24 24" width="24px" xml:space="preserve" xmlns="http://www.w3.org/2000/svg" xmlns:xlink="http://www.w3.org/1999/xlink"><g><path d="M9.3,6.8c-1.2,0-2.2,0.6-2.8,1.6C6,7.4,4.9,6.8,3.8,6.8c-0.9,0-1.7,0.4-2.3,1V7.2c0-0.3-0.2-0.5-0.5-0.5S0.5,6.9,0.5,7.2   V10v3.9v2.9c0,0.3,0.2,0.5,0.5,0.5s0.5-0.2,0.5-0.5v-2.9V10c0-1.3,1-2.3,2.3-2.3S6,8.8,6,10v6.8c0,0.3,0.2,0.5,0.5,0.5   c0.3,0,0.5-0.2,0.5-0.5V10c0-1.3,1-2.3,2.3-2.3s2.3,1,2.3,2.3v6.8c0,0.3,0.2,0.5,0.5,0.5c0.3,0,0.5-0.2,0.5-0.5V10   C12.6,8.3,11.1,6.8,9.3,6.8z"/><path d="M22.1,8.5c-1-1-2.3-1.5-3.6-1.5s-2.7,0.5-3.6,1.5c-1,1-1.5,2.3-1.5,3.6s0.5,2.7,1.5,3.6c1,1,2.3,1.5,3.6,1.5   c1.3,0,2.6-0.5,3.6-1.5c0.3-0.3,0.6-0.7,0.9-1.2c0.1-0.2,0-0.5-0.2-0.7c-0.2-0.1-0.5,0-0.6,0.2c-0.2,0.4-0.4,0.7-0.7,1   c-1.6,1.6-4.3,1.6-5.9,0c-0.8-0.8-1.2-1.8-1.2-3c0-1.1,0.4-2.2,1.2-3c0.8-0.8,1.8-1.2,3-1.2s2.2,0.4,3,1.2c0.5,0.5,0.9,1.2,1.1,1.9   h-6.1c-0.3,0-0.5,0.2-0.5,0.5c0,0.3,0.2,0.5,0.5,0.5H23c0.1,0,0.3-0.1,0.4-0.2c0.1-0.1,0.1-0.2,0.1-0.4   C23.4,10.4,22.9,9.3,22.1,8.5z"/></g></svg>