<?xml version="1.0" ?><!DOCTYPE svg  PUBLIC '-//W3C//DTD SVG 1.1//EN'  'http://www.w3.org/Graphics/SVG/1.1/DTD/svg11.dtd'><svg enable-background="new 0 0 512 512" height="512px" id="Layer_1" version="1.1" viewBox="0 0 512 512" width="512px" xml:space="preserve" xmlns="http://www.w3.org/2000/svg" xmlns:xlink="http://www.w3.org/1999/xlink"><path d="M511.999,432c0,44.182-35.816,80-80,80H80c-44.183,0-80-35.818-80-80V80C0,35.817,35.817,0,80,0h351.999  c44.184,0,80,35.817,80,80V432z" fill="#E52D27"/><path d="M511.999,432V272.176L395,155.176v189.158H105.058L272.725,512h159.274  C476.183,512,511.999,476.182,511.999,432z" fill="#BC1515"/><rect clip-rule="evenodd" fill="#BC1515" fill-rule="evenodd" height="112.507" width="164" x="187" y="188"/><g id="Lozenge"><g><path d="M412.803,192.02c0,0-3.126-22.051-12.721-31.762c-12.168-12.745-25.808-12.809-32.063-13.555    c-44.779-3.237-111.95-3.237-111.95-3.237h-0.14c0,0-67.169,0-111.95,3.237c-6.255,0.746-19.89,0.81-32.063,13.555    C102.322,169.969,99.2,192.02,99.2,192.02S96,217.916,96,243.811v24.277c0,25.896,3.201,51.791,3.201,51.791    s3.122,22.052,12.716,31.762c12.173,12.746,28.163,12.344,35.284,13.679C172.801,367.774,256,368.534,256,368.534    s67.24-0.102,112.02-3.338c6.255-0.747,19.895-0.81,32.063-13.556c9.595-9.71,12.721-31.762,12.721-31.762    s3.196-25.896,3.196-51.791v-24.277C415.999,217.916,412.803,192.02,412.803,192.02z M222.963,297.507l-0.015-89.911    l86.465,45.112L222.963,297.507z" fill="#FFFFFF"/></g></g></svg>