<?xml version="1.0" ?><!DOCTYPE svg  PUBLIC '-//W3C//DTD SVG 1.1//EN'  'http://www.w3.org/Graphics/SVG/1.1/DTD/svg11.dtd'><svg enable-background="new 0 0 512 512" id="Layer_1" version="1.1" viewBox="0 0 512 512" xml:space="preserve" xmlns="http://www.w3.org/2000/svg" xmlns:xlink="http://www.w3.org/1999/xlink"><g><path d="M275,211.1c0.1,10.7,0.1,18.6-4.1,25.6c-6,10.1-17.9,12.6-27.5,5.8c-6.2-4.4-10.7-10.4-14.7-16.7   c-26.2-41.4-52.3-82.9-78.5-124.4c-7.6-12.1-15.3-24.1-23-36.2c-5.4-8.5-3.2-17.6,5.7-24.2c7.3-5.4,15.6-8.8,23.9-12   c21.4-8.3,43.4-14.4,66.1-17.9c8.8-1.4,17.9-2.6,26.8-0.4c8.3,2.1,11.5,6.3,12.7,14.6c2.5,18,2.9,36.2,4.2,54.2   c1.8,24.2,3.6,48.4,5.2,72.7c0.9,12.9,1.5,25.9,2.2,38.9C274.4,198.7,274.7,206.3,275,211.1z" fill="#BF261A"/><path d="M458.1,242.8c0,9.4-4,15.1-13.1,17.5c-19.5,5.1-39.2,9.9-58.8,14.8c-16.1,4-32.2,8-48.3,12   c-14.3,3.6-27.6-5.4-29.3-19.9c-0.6-5.3,1-9.9,4-14c21.5-29.1,43-58.3,64.5-87.3c8.4-11.3,16.7-13.3,27.2-6.6   c2.2,1.4,4.3,3.1,6.2,5c19.4,19.2,34.1,41.5,44.8,66.5C457,234.7,458.6,238.8,458.1,242.8z" fill="#BF261A"/><path d="M83.8,306.7c0.7-17.2,1.3-34.5,6.4-51.2c1-3.3,2.3-6.5,4.5-9.3c4.8-6.2,11.1-8.8,18.5-6.1   c15.9,5.8,31.6,12.1,47.2,18.4c19.7,8,39.2,16.3,58.9,24.3c8.1,3.3,12.3,9.5,13.1,17.9c0.8,8.7-1.8,16.1-9.4,21.2   c-3.8,2.5-8.4,3.2-12.6,4.5c-31.4,10.2-62.9,19.8-94.3,30.1c-17.7,5.8-27-1-30.1-20.4C84.5,326.3,83.7,316.5,83.8,306.7z" fill="#BF261A"/><path d="M461,384.9c-0.7,7.2-4.5,14.7-9,21.9c-13,20.9-27.7,40.2-47.3,55.4c-8.4,6.5-17.1,7.1-23.8,1.8   c-3.8-3-6.1-7.5-8.6-11.5c-18.4-29.4-36.7-58.9-54.9-88.4c-8.7-14.2,1-33,17.6-34.1c2.7-0.2,5.2,0.7,7.8,1.5   c29.6,9.8,59.1,19.5,88.7,29.3c6.3,2.1,12.6,4.1,18.8,6.5C457.6,370.2,461,375.6,461,384.9z" fill="#BF261A"/><path d="M273,430.5c0,18.2,0,36.3,0,54.5c0,12.8-7.6,19.8-20.5,19.3c-17.4-0.7-33.5-6.5-49.5-12.6   c-12-4.5-23.7-9.7-34-17.4c-12.7-9.4-14-18.7-4-30.7c23.3-27.9,46.9-55.6,70.5-83.3c6.4-7.5,15.5-9.3,24.8-5.6   c9,3.5,13.7,10.5,13.7,20.5c0,9.3-0.1,18.7-0.1,28c0,9.2,0,18.3,0,27.5C273.6,430.5,273.3,430.5,273,430.5z" fill="#BF261A"/></g></svg>