<?xml version="1.0" encoding="utf-8"?>
<!-- Generated by IcoMoon.io -->
<!DOCTYPE svg PUBLIC "-//W3C//DTD SVG 1.1//EN" "http://www.w3.org/Graphics/SVG/1.1/DTD/svg11.dtd">
<svg version="1.1" xmlns="http://www.w3.org/2000/svg" xmlns:xlink="http://www.w3.org/1999/xlink" width="28" height="28" viewBox="0 0 28 28">
<path fill="#444" d="M9.328 6.578v18.328q0 0.391-0.195 0.664t-0.57 0.273q-0.266 0-0.516-0.125l-7.266-3.641q-0.328-0.156-0.555-0.523t-0.227-0.727v-17.813q0-0.313 0.156-0.531t0.453-0.219q0.219 0 0.688 0.234l7.984 4q0.047 0.047 0.047 0.078zM10.328 8.156l8.344 13.531-8.344-4.156v-9.375zM28 8.437v16.469q0 0.391-0.219 0.633t-0.594 0.242-0.734-0.203l-6.891-3.437zM27.953 6.563q0 0.047-4.008 6.555t-4.695 7.617l-6.094-9.906 5.063-8.234q0.266-0.438 0.812-0.438 0.219 0 0.406 0.094l8.453 4.219q0.063 0.031 0.063 0.094z"></path>
</svg>
